<svg width="24" height="24" viewBox="0 0 24 24" fill="none" xmlns="http://www.w3.org/2000/svg">
<path d="M0 7.88761C0.111111 7.67876 0.333333 7.57434 0.555556 7.57434C0.666667 7.57434 0.777778 7.57434 0.888889 7.57434C1.77778 7.57434 2.77778 7.57434 3.66667 7.57434C4.11111 7.57434 4.44444 7.78319 4.66667 8.20089C5.22222 9.34957 5.77778 10.3938 6.44444 11.4381C6.77778 11.9602 7 12.3779 7.44444 12.6912C7.55556 12.6912 7.66667 12.7956 7.77778 12.9C8 13.0044 8.22222 12.9 8.33333 12.6912C8.55556 12.3779 8.55556 11.9602 8.55556 11.5425C8.77778 10.6027 8.77778 9.76727 8.55556 8.82744C8.44444 8.30531 8.11111 8.09646 7.55556 7.88761C7.33333 7.88761 7.33333 7.78319 7.55556 7.57434C7.77778 7.36549 8 7.26106 8.33333 7.15664C9.55556 6.94779 10.8889 6.94779 12.1111 7.15664C12.7778 7.26106 13 7.46991 13 8.09646C13 8.61859 13 9.14072 13 9.66284C13 10.3938 13 11.1248 13 11.7513C13 11.9602 13 12.169 13.1111 12.3779C13.2222 12.7956 13.6667 12.9 14 12.5867C14.5556 12.169 15 11.5425 15.3333 10.9159C15.8889 9.97612 16.4444 9.03629 16.8889 8.09646C17.1111 7.57434 17.2222 7.46991 17.7778 7.46991C18.8889 7.46991 20.1111 7.46991 21.2222 7.46991C21.4444 7.46991 21.5556 7.46991 21.7778 7.57434C22.1111 7.78319 22.2222 7.88761 22.2222 8.20089C22.1111 8.72302 21.8889 9.14072 21.5556 9.55842C20.7778 10.6027 20 11.5425 19.2222 12.5867C19 12.7956 18.8889 13.0044 18.7778 13.3177C18.5556 13.7354 18.5556 14.0487 18.8889 14.4664C19.4444 14.9885 19.8889 15.4062 20.4444 15.9284C21 16.4505 21.5556 16.9726 22 17.7036C22.1111 17.808 22.1111 18.0169 22.2222 18.1213C22.3333 18.6434 22.1111 18.9567 21.5556 18.9567C21.1111 18.9567 20.5556 18.9567 20.1111 18.9567C19.4444 18.9567 18.8889 18.9567 18.2222 18.9567C17.6667 18.9567 17.2222 18.7478 16.7778 18.4346C16.3333 18.1213 16 17.7036 15.5556 17.2859C15.2222 16.9726 15 16.6593 14.6667 16.4505C14.5556 16.3461 14.4444 16.3461 14.3333 16.2416C14.1111 16.1372 13.8889 16.1372 13.6667 16.3461C13.2222 16.6593 13.2222 17.1815 13.1111 17.5992C13.1111 17.808 13.1111 18.0169 13.1111 18.2257C13.1111 18.6434 12.8889 18.8523 12.4444 18.9567C10.5556 19.0611 8.77778 18.8523 7.11111 17.808C6 17.077 5.11111 16.2416 4.33333 15.1974C2.66667 13.1089 1.33333 10.8115 0.222222 8.40974C0.111111 8.30531 0 8.30531 0 8.20089C0 8.09646 0 7.99204 0 7.88761Z" fill="white"/>
</svg>
