<svg width="24" height="24" viewBox="0 0 24 24" fill="none" xmlns="http://www.w3.org/2000/svg">
<path d="M16.9287 1H7.07107C3.72349 1 1 3.72362 1 7.0712V16.9288C1 20.2765 3.72349 23 7.07107 23H16.9287C20.2765 23 23 20.2764 23 16.9288V7.0712C23.0001 3.72362 20.2765 1 16.9287 1ZM21.0482 16.9288C21.0482 19.2002 19.2002 21.0481 16.9288 21.0481H7.07107C4.79979 21.0482 2.95195 19.2002 2.95195 16.9288V7.0712C2.95195 4.79992 4.79979 2.95195 7.07107 2.95195H16.9287C19.2001 2.95195 21.0481 4.79992 21.0481 7.0712V16.9288H21.0482Z" fill="white"/>
<path d="M11.9999 6.33093C8.87405 6.33093 6.33105 8.87393 6.33105 11.9998C6.33105 15.1255 8.87405 17.6684 11.9999 17.6684C15.1257 17.6684 17.6687 15.1255 17.6687 11.9998C17.6687 8.87393 15.1257 6.33093 11.9999 6.33093ZM11.9999 15.7163C9.95048 15.7163 8.283 14.0491 8.283 11.9996C8.283 9.9501 9.95035 8.28275 11.9999 8.28275C14.0494 8.28275 15.7168 9.9501 15.7168 11.9996C15.7168 14.0491 14.0493 15.7163 11.9999 15.7163Z" fill="white"/>
<path d="M17.9063 4.67664C17.5302 4.67664 17.1608 4.82889 16.8952 5.09565C16.6283 5.36112 16.4749 5.73069 16.4749 6.10806C16.4749 6.48427 16.6284 6.8537 16.8952 7.12047C17.1606 7.38593 17.5302 7.53949 17.9063 7.53949C18.2836 7.53949 18.6519 7.38593 18.9187 7.12047C19.1854 6.8537 19.3377 6.48414 19.3377 6.10806C19.3377 5.73069 19.1854 5.36112 18.9187 5.09565C18.6532 4.82889 18.2836 4.67664 17.9063 4.67664Z" fill="white"/>
</svg>
