<svg width="237" height="81" viewBox="0 0 237 81" fill="none" xmlns="http://www.w3.org/2000/svg">
<path d="M105.866 24.1647C106.847 25.2872 107.367 26.7385 107.324 28.2283C107.28 29.7182 106.676 31.1366 105.631 32.1998C105.116 32.7388 104.494 33.1655 103.806 33.4529C103.118 33.7404 102.378 33.8824 101.632 33.8701H95.1202C93.967 33.8701 93.2901 33.5567 93.0895 32.93C92.9744 32.5108 92.9247 32.0763 92.9422 31.642V17.9003C92.937 17.6114 92.9496 17.3226 92.9798 17.0353C93.0207 16.8083 93.1002 16.5899 93.2148 16.3898C93.4468 15.9448 94.0902 15.7223 95.1453 15.7223H101.385C102.096 15.7061 102.802 15.8388 103.459 16.1119C104.116 16.385 104.708 16.7924 105.198 17.308C105.716 17.8077 106.125 18.408 106.402 19.072C106.678 19.736 106.816 20.4496 106.806 21.1688C106.812 22.2409 106.483 23.288 105.866 24.1647ZM102.945 27.7968C102.957 27.4776 102.91 27.1591 102.807 26.8567C102.767 26.7481 102.706 26.6485 102.628 26.5636C102.549 26.4786 102.455 26.4099 102.35 26.3615C101.904 26.212 101.435 26.1451 100.965 26.1641C100.493 26.1984 100.022 26.0761 99.6266 25.8162C99.3289 25.5875 99.1816 25.1111 99.1816 24.3935C99.1816 23.6758 99.3352 23.2026 99.6391 22.9707C99.9431 22.7388 100.451 22.6229 101.162 22.6229C101.82 22.6229 102.218 22.4505 102.35 22.1027C102.408 21.8109 102.432 21.5131 102.419 21.2158C102.435 21.0476 102.405 20.8782 102.333 20.7254C102.26 20.5727 102.148 20.4422 102.008 20.3478C101.628 20.1599 101.206 20.0745 100.783 20.1002H97.3233V29.5016H101.397C102.419 29.489 102.945 28.925 102.945 27.7968Z" fill="#251F44"/>
<path d="M110.645 22.4693C111.914 21.2355 113.615 20.5453 115.385 20.5453C117.155 20.5453 118.855 21.2355 120.125 22.4693C121.245 23.5628 121.955 25.0084 122.135 26.5634C122.315 28.1184 121.955 29.6881 121.115 31.0089C120.478 32.0095 119.586 32.8219 118.53 33.3624C117.55 33.8579 116.468 34.1166 115.371 34.1177C114.265 34.1125 113.177 33.8359 112.203 33.3123C111.156 32.7492 110.27 31.9297 109.627 30.9306C108.924 29.8798 108.557 28.6407 108.574 27.3769C108.546 26.458 108.716 25.544 109.074 24.6971C109.431 23.8502 109.967 23.0903 110.645 22.4693ZM113.738 29.1412C114.191 29.5173 114.757 29.7303 115.346 29.746C115.946 29.7251 116.521 29.5045 116.982 29.1193C117.235 28.8902 117.438 28.6113 117.579 28.3002C117.719 27.9891 117.794 27.6524 117.799 27.311C117.804 26.9696 117.738 26.6309 117.606 26.3161C117.474 26.0012 117.278 25.7169 117.032 25.4809C116.562 25.0989 115.976 24.8888 115.371 24.8855C114.762 24.8939 114.175 25.1157 113.713 25.5123C113.452 25.7345 113.246 26.0151 113.113 26.3313C112.979 26.6475 112.922 26.9906 112.945 27.333C112.92 27.678 112.978 28.0241 113.117 28.3414C113.255 28.6586 113.468 28.9374 113.738 29.1537V29.1412Z" fill="#251F44"/>
<path d="M132.256 22.2343C132.356 21.3108 133.008 20.8481 134.211 20.846C134.694 20.8272 135.178 20.8778 135.647 20.9964C135.786 21.0327 135.917 21.0977 136.03 21.1872C136.144 21.2768 136.237 21.389 136.305 21.5166C136.413 21.7218 136.488 21.9429 136.527 22.1716C136.557 22.4557 136.569 22.7414 136.565 23.0271V31.6921C136.569 31.9767 136.557 32.2613 136.527 32.5445C136.491 32.7732 136.42 32.9951 136.317 33.2026C136.085 33.6329 135.52 33.8471 134.622 33.845C133.723 33.8429 133.122 33.7311 132.817 33.5097C132.663 33.3948 132.535 33.2479 132.443 33.0791C132.351 32.9104 132.297 32.7237 132.284 32.5319C131.674 33.4073 130.654 33.845 129.225 33.845C127.796 33.845 126.472 33.1932 125.252 31.8895C124.07 30.672 123.409 29.0421 123.409 27.3455C123.409 25.6489 124.07 24.019 125.252 22.8015C126.484 21.5083 127.834 20.8606 129.301 20.8585C129.827 20.8525 130.35 20.9538 130.836 21.1562C131.186 21.2886 131.512 21.477 131.801 21.714C131.97 21.8713 132.123 22.0456 132.256 22.2343ZM127.749 27.3831C127.752 27.6594 127.811 27.9323 127.922 28.1854C128.033 28.4385 128.194 28.6666 128.395 28.856C128.596 29.0684 128.839 29.2364 129.109 29.3492C129.379 29.462 129.669 29.5171 129.962 29.5109C130.249 29.5174 130.534 29.461 130.797 29.3457C131.06 29.2304 131.295 29.0589 131.485 28.8434C131.869 28.4487 132.087 27.9213 132.093 27.3706C132.086 26.8172 131.879 26.285 131.51 25.8726C131.319 25.6449 131.079 25.464 130.807 25.344C130.535 25.2239 130.24 25.1678 129.943 25.18C129.644 25.1703 129.347 25.2274 129.073 25.3472C128.8 25.467 128.556 25.6465 128.36 25.8726C127.975 26.2822 127.757 26.821 127.749 27.3831Z" fill="#251F44"/>
<path d="M147.408 20.9964C147.711 21.0872 147.982 21.2634 148.188 21.5041C148.424 21.8387 148.535 22.2459 148.501 22.6542C148.481 23.2605 148.32 23.8538 148.031 24.3872C147.925 24.662 147.738 24.8985 147.496 25.0661C147.253 25.2337 146.966 25.3247 146.671 25.3273C146.375 25.3277 146.082 25.2601 145.816 25.1299C145.476 24.9852 145.109 24.9177 144.741 24.9325C144.28 24.9357 143.836 25.1023 143.487 25.4026C143.308 25.5332 143.161 25.7042 143.06 25.9018C142.959 26.0995 142.906 26.3181 142.904 26.5401V31.7391C142.909 32.0248 142.896 32.3105 142.867 32.5946C142.828 32.8251 142.748 33.0468 142.632 33.2496C142.385 33.68 141.742 33.8952 140.701 33.8952C139.91 33.8952 139.34 33.7541 138.993 33.4721C138.852 33.3341 138.739 33.1689 138.663 32.9863C138.586 32.8038 138.547 32.6076 138.548 32.4097V23.0083C138.545 22.7227 138.556 22.4372 138.583 22.1528C138.619 21.9337 138.691 21.722 138.796 21.526C139.025 21.081 139.67 20.8554 140.726 20.8554C141.717 20.8554 142.335 21.0455 142.582 21.4258C142.755 21.6635 142.85 21.9494 142.854 22.2437C142.965 22.0959 143.085 21.9556 143.215 21.8238C143.517 21.5565 143.855 21.3309 144.217 21.1531C144.625 20.9043 145.088 20.76 145.565 20.7332C145.892 20.7296 146.219 20.7505 146.543 20.7959C146.836 20.8404 147.125 20.9074 147.408 20.9964Z" fill="#251F44"/>
<path d="M158.608 15.4121C158.678 15.2877 158.772 15.1786 158.885 15.0914C158.998 15.0042 159.128 14.9406 159.266 14.9044C160.09 14.707 160.949 14.707 161.773 14.9044C161.912 14.9409 162.042 15.006 162.155 15.0956C162.268 15.1851 162.361 15.2972 162.428 15.4246C162.538 15.63 162.614 15.8524 162.65 16.0827C162.68 16.3658 162.693 16.6505 162.688 16.9351V31.7141C162.693 31.9998 162.68 32.2855 162.65 32.5696C162.613 32.7915 162.533 33.0042 162.415 33.1964C162.168 33.6414 161.475 33.8639 160.322 33.8639C159.169 33.8639 158.536 33.4596 158.404 32.6511C157.711 33.445 156.745 33.8409 155.509 33.8388C154.023 33.8388 152.665 33.1912 151.435 31.8959C150.253 30.6784 149.592 29.0485 149.592 27.3518C149.592 25.6552 150.253 24.0253 151.435 22.8078C152.665 21.5042 154.015 20.8523 155.483 20.8523C156.021 20.8241 156.558 20.9212 157.052 21.1361C157.546 21.3509 157.983 21.6775 158.329 22.0902V16.91C158.324 16.6254 158.337 16.3407 158.367 16.0576C158.41 15.8304 158.492 15.6121 158.608 15.4121ZM154.587 28.8686C154.787 29.0838 155.029 29.2544 155.299 29.3695C155.569 29.4845 155.861 29.5413 156.154 29.5361C156.441 29.5425 156.726 29.4861 156.989 29.3708C157.253 29.2555 157.487 29.0841 157.677 28.8686C158.061 28.4738 158.279 27.9465 158.285 27.3957C158.278 26.8423 158.071 26.3101 157.702 25.8978C157.511 25.6706 157.27 25.4901 156.999 25.3701C156.727 25.2501 156.432 25.1937 156.135 25.2052C155.837 25.1927 155.54 25.2474 155.265 25.3651C154.991 25.4827 154.746 25.6605 154.55 25.8852C154.171 26.2924 153.958 26.8269 153.954 27.3832C153.956 27.6604 154.013 27.9344 154.122 28.1894C154.23 28.4444 154.389 28.6753 154.587 28.8686Z" fill="#251F44"/>
<path d="M180.382 22.9519H184.741C185.631 22.9864 186.176 23.2152 186.373 23.6445C186.563 24.0806 186.648 24.5549 186.621 25.0296V30.4793C186.61 30.7638 186.544 31.0434 186.425 31.302C186.306 31.5607 186.137 31.7934 185.928 31.9867C184.543 33.424 182.463 34.1427 179.689 34.1427C177.23 34.1427 175.093 33.2141 173.277 31.3568C172.395 30.4769 171.699 29.4281 171.231 28.2732C170.763 27.1182 170.533 25.8807 170.554 24.6348C170.524 23.404 170.756 22.181 171.234 21.0465C171.712 19.912 172.426 18.8919 173.327 18.0538C174.909 16.4925 177.004 15.5599 179.222 15.4302C181.441 15.3004 183.631 15.9824 185.383 17.3487C185.575 17.4642 185.736 17.6246 185.853 17.8163C185.969 18.0079 186.037 18.2249 186.051 18.4487C186.009 18.9617 185.811 19.4497 185.483 19.8463C184.838 20.7238 184.252 21.1594 183.725 21.1594C183.412 21.1594 182.908 20.9327 182.215 20.4794C181.475 20.0125 180.613 19.7758 179.739 19.7993C178.496 19.7952 177.299 20.2686 176.395 21.1218C175.915 21.5587 175.535 22.0951 175.283 22.6937C175.031 23.2923 174.912 23.9386 174.935 24.5878C174.922 25.2638 175.048 25.9353 175.303 26.5614C175.558 27.1874 175.939 27.7549 176.42 28.2292C176.85 28.6961 177.37 29.07 177.949 29.3276C178.529 29.5853 179.155 29.7213 179.789 29.7272C180.628 29.7393 181.46 29.5871 182.24 29.2791V26.5809H180.284C179.91 26.6095 179.534 26.5415 179.194 26.3834C178.982 26.2524 178.831 26.0428 178.774 25.8006C178.699 25.4601 178.665 25.1118 178.674 24.7633C178.664 24.4088 178.702 24.0547 178.786 23.7103C178.811 23.5954 178.86 23.4872 178.93 23.3931C179.001 23.299 179.091 23.2212 179.194 23.165C179.568 23.005 179.975 22.9322 180.382 22.9519Z" fill="#251F44"/>
<path d="M197.06 22.2343C197.158 21.3109 197.81 20.8481 199.015 20.846C199.498 20.8274 199.982 20.8781 200.45 20.9965C200.596 21.031 200.732 21.0964 200.85 21.1884C200.968 21.2803 201.065 21.3965 201.134 21.5292C201.242 21.7344 201.317 21.9555 201.356 22.1842C201.384 22.4684 201.396 22.7541 201.39 23.0397V31.7047C201.396 31.9892 201.384 32.2739 201.356 32.5571C201.319 32.7859 201.247 33.0078 201.143 33.2152C200.914 33.6445 200.347 33.8576 199.448 33.8576C198.548 33.8576 197.946 33.7448 197.642 33.5223C197.488 33.4074 197.361 33.2605 197.269 33.0917C197.177 32.923 197.123 32.7363 197.11 32.5445C196.498 33.4199 195.478 33.8576 194.051 33.8576C192.624 33.8576 191.3 33.2058 190.077 31.9021C188.896 30.6846 188.235 29.0547 188.235 27.3581C188.235 25.6615 188.896 24.0316 190.077 22.8141C191.306 21.5209 192.656 20.8732 194.126 20.8711C194.653 20.8651 195.176 20.9664 195.662 21.1688C196.012 21.3012 196.338 21.4896 196.627 21.7266C196.788 21.881 196.933 22.0511 197.06 22.2343ZM192.553 27.3831C192.555 27.6593 192.613 27.9322 192.724 28.1853C192.834 28.4384 192.995 28.6666 193.196 28.856C193.397 29.0683 193.64 29.2362 193.91 29.349C194.18 29.4618 194.47 29.517 194.762 29.511C195.05 29.5174 195.335 29.461 195.598 29.3457C195.861 29.2304 196.096 29.059 196.286 28.8435C196.67 28.4487 196.887 27.9214 196.893 27.3706C196.887 26.8172 196.68 26.285 196.311 25.8727C196.12 25.645 195.879 25.4641 195.608 25.344C195.336 25.224 195.04 25.1679 194.744 25.1801C194.448 25.1727 194.153 25.2309 193.883 25.3507C193.612 25.4704 193.371 25.6487 193.177 25.8727C192.789 26.281 192.57 26.8203 192.563 27.3831H192.553Z" fill="#251F44"/>
<path d="M207.614 22.579C208.391 21.4111 209.324 20.8262 210.413 20.8241C211.179 20.7928 211.938 20.9782 212.603 21.3591C213.268 21.7399 213.812 22.3007 214.173 22.977C214.375 22.7038 214.594 22.4432 214.828 22.1967C215.192 21.8436 215.605 21.5439 216.054 21.3067C216.578 20.9944 217.176 20.8278 217.787 20.8241C218.418 20.8143 219.044 20.9457 219.618 21.2086C220.192 21.4716 220.7 21.8595 221.105 22.344C221.995 23.3593 222.44 25.039 222.44 27.3831V31.714C222.445 31.9997 222.432 32.2854 222.403 32.5696C222.363 32.8 222.284 33.0218 222.168 33.2245C221.959 33.6737 221.324 33.8972 220.262 33.8952C219.201 33.8931 218.57 33.6622 218.369 33.2026C218.266 32.9951 218.196 32.7732 218.159 32.5445C218.13 32.2614 218.117 31.9767 218.122 31.6921V27.358C218.122 25.9228 217.608 25.2051 216.586 25.2051C216.01 25.2051 215.615 25.3931 215.411 25.7723C215.178 26.2759 215.07 26.8287 215.098 27.3831V31.714C215.103 32.0039 215.09 32.2938 215.06 32.5821C215.017 32.8027 214.938 33.0146 214.825 33.2088C214.593 33.658 213.95 33.8816 212.895 33.8795C211.84 33.8774 211.204 33.6465 210.989 33.1869C210.886 32.9795 210.814 32.7577 210.776 32.5288C210.748 32.2456 210.736 31.961 210.742 31.6764V27.358C210.742 25.9228 210.228 25.2051 209.206 25.2051C208.185 25.2051 207.714 25.9165 207.714 27.358V31.7454C207.719 32.031 207.707 32.3167 207.677 32.6009C207.638 32.8314 207.558 33.0531 207.442 33.2559C207.194 33.6852 206.549 33.9014 205.511 33.9014C204.474 33.9014 203.835 33.6789 203.603 33.2308C203.503 33.0331 203.432 32.822 203.393 32.604C203.363 32.3157 203.35 32.0258 203.355 31.736V23.0021C203.351 22.7164 203.363 22.4307 203.393 22.1465C203.431 21.9247 203.511 21.712 203.628 21.5198C203.876 21.0748 204.462 20.8491 205.386 20.8491C206.311 20.8491 206.912 20.9996 207.194 21.2973C207.495 21.654 207.645 22.1135 207.614 22.579Z" fill="#251F44"/>
<path d="M237 25.81C237 26.8254 236.748 27.5764 236.245 28.0632C236.029 28.2904 235.77 28.4721 235.483 28.5976C235.197 28.723 234.887 28.7896 234.574 28.7934H228.711C228.711 29.2572 228.984 29.6458 229.529 29.9592C230.022 30.2584 230.585 30.4207 231.162 30.4292C231.925 30.4513 232.686 30.3453 233.415 30.1159L233.687 30.0156C233.995 29.8565 234.332 29.7637 234.678 29.7429C235.204 29.7429 235.658 30.1148 236.038 30.8586C236.225 31.2101 236.332 31.5985 236.351 31.9961C236.351 33.4586 234.593 34.1898 231.077 34.1898C229.96 34.2114 228.85 33.9978 227.821 33.563C226.953 33.2027 226.191 32.628 225.605 31.8927C224.587 30.6214 224.034 29.0402 224.038 27.4114C224.038 25.3222 224.711 23.6592 226.057 22.4224C227.425 21.1617 229.233 20.4867 231.093 20.5421C233.391 20.5421 235.075 21.3506 236.144 22.9677C236.71 23.807 237.008 24.7979 237 25.81ZM231.779 26.5433C232.406 26.5433 232.719 26.2801 232.719 25.7536C232.725 25.577 232.688 25.4015 232.612 25.2419C232.536 25.0822 232.424 24.9428 232.283 24.8354C231.923 24.5841 231.487 24.4626 231.049 24.4907C230.455 24.5128 229.889 24.7449 229.451 25.1456C228.921 25.5844 228.658 26.0482 228.658 26.5433H231.779Z" fill="#251F44"/>
<path d="M104.951 45.4558C105.236 45.4511 105.52 45.4637 105.803 45.4934C106.031 45.5318 106.25 45.6114 106.449 45.7284C106.573 45.801 106.681 45.8973 106.768 46.0119C106.854 46.1264 106.917 46.2569 106.953 46.3959C107.154 47.2259 107.154 48.0918 106.953 48.9218C106.918 49.0611 106.854 49.1914 106.765 49.3043C106.675 49.4171 106.564 49.5099 106.436 49.5767C106.232 49.6885 106.009 49.7638 105.778 49.7992C105.487 49.8292 105.194 49.8418 104.901 49.8368H97.3233V52.3439H102.203C102.496 52.339 102.789 52.3516 103.08 52.3815C103.311 52.4201 103.532 52.4997 103.735 52.6165C104.165 52.8651 104.381 53.517 104.381 54.572C104.381 55.7294 104.067 56.4147 103.44 56.6278C103.03 56.7246 102.608 56.7657 102.187 56.75H97.3233V61.4225C97.3276 61.7123 97.316 62.002 97.2888 62.2906C97.2478 62.5166 97.1683 62.7339 97.0537 62.933C96.8218 63.3801 96.1773 63.6036 95.1202 63.6036C93.967 63.6036 93.2901 63.2902 93.0895 62.6635C92.9733 62.2563 92.9236 61.833 92.9422 61.41V47.6338C92.9422 46.7981 93.0989 46.2246 93.4123 45.9133C93.7257 45.602 94.32 45.4495 95.1954 45.4558H104.951Z" fill="#251F44"/>
<path d="M110.419 52.1903C111.689 50.9563 113.39 50.266 115.161 50.266C116.932 50.266 118.632 50.9563 119.902 52.1903C121.022 53.2811 121.733 54.7234 121.916 56.2757C122.099 57.828 121.743 59.396 120.908 60.7174C120.27 61.7173 119.378 62.5295 118.323 63.0709C117.34 63.572 116.252 63.834 115.148 63.8355C114.042 63.8303 112.954 63.5538 111.98 63.0301C110.931 62.4694 110.04 61.6522 109.392 60.6547C108.691 59.603 108.325 58.3643 108.342 57.101C108.315 56.1812 108.486 55.2664 108.845 54.4189C109.203 53.5715 109.74 52.8113 110.419 52.1903ZM113.516 58.8622C113.969 59.2383 114.535 59.4513 115.123 59.467C115.723 59.4461 116.299 59.2255 116.759 58.8402C117.012 58.6111 117.215 58.3323 117.356 58.0212C117.497 57.7101 117.572 57.3734 117.576 57.032C117.581 56.6906 117.515 56.3519 117.383 56.0371C117.251 55.7222 117.056 55.4379 116.809 55.2019C116.34 54.8198 115.754 54.6098 115.148 54.6065C114.539 54.6136 113.952 54.8355 113.491 55.2332C113.23 55.4552 113.024 55.7352 112.891 56.0508C112.757 56.3665 112.7 56.709 112.723 57.0508C112.699 57.3944 112.758 57.7386 112.896 58.054C113.034 58.3695 113.247 58.6468 113.516 58.8622Z" fill="#251F44"/>
<path d="M132.428 50.7049C132.731 50.7968 133.002 50.9729 133.208 51.2126C133.445 51.5471 133.556 51.9544 133.522 52.3627C133.502 52.969 133.341 53.5623 133.052 54.0957C132.945 54.3708 132.757 54.6074 132.514 54.775C132.271 54.9425 131.984 55.0334 131.689 55.0358C131.393 55.0358 131.102 54.9683 130.836 54.8384C130.496 54.6939 130.128 54.6265 129.758 54.641C129.298 54.6453 128.854 54.8118 128.505 55.1111C128.325 55.2419 128.18 55.413 128.079 55.6106C127.978 55.8083 127.925 56.0268 127.925 56.2486V61.4476C127.929 61.7333 127.917 62.019 127.887 62.3031C127.848 62.5336 127.769 62.7553 127.652 62.9581C127.405 63.3874 126.759 63.6037 125.722 63.6037C124.928 63.6037 124.358 63.4626 124.011 63.1806C123.87 63.0419 123.758 62.8766 123.681 62.6942C123.605 62.5118 123.566 62.316 123.566 62.1182V52.7168C123.561 52.4312 123.574 52.1455 123.603 51.8613C123.639 51.6423 123.71 51.4306 123.813 51.2345C124.045 50.7895 124.688 50.5639 125.744 50.5639C126.734 50.5639 127.353 50.754 127.602 51.1343C127.776 51.372 127.871 51.6579 127.875 51.9522C127.983 51.8036 128.103 51.6632 128.232 51.5323C128.535 51.2657 128.873 51.0403 129.235 50.8616C129.644 50.6131 130.108 50.4689 130.585 50.4417C130.912 50.438 131.239 50.459 131.563 50.5044C131.856 50.5487 132.145 50.6158 132.428 50.7049Z" fill="#251F44"/>
<path d="M153.149 45.4558C153.434 45.4511 153.72 45.4637 154.004 45.4934C154.232 45.5318 154.451 45.6114 154.65 45.7284C154.774 45.801 154.882 45.8973 154.969 46.0119C155.055 46.1264 155.118 46.2569 155.154 46.3959C155.355 47.2259 155.355 48.0918 155.154 48.9218C155.119 49.0611 155.055 49.1914 154.966 49.3043C154.877 49.4171 154.765 49.5099 154.637 49.5767C154.432 49.6881 154.21 49.7633 153.979 49.7992C153.688 49.8292 153.395 49.8418 153.102 49.8368H145.524V52.3439H150.404C150.697 52.339 150.99 52.3516 151.281 52.3815C151.512 52.4206 151.733 52.5002 151.936 52.6165C152.366 52.8651 152.582 53.517 152.582 54.572C152.582 55.7294 152.268 56.4147 151.641 56.6278C151.231 56.7246 150.809 56.7657 150.388 56.75H145.524V61.4225C145.53 61.7123 145.517 62.0022 145.487 62.2906C145.448 62.5173 145.369 62.735 145.252 62.933C145.023 63.3811 144.377 63.6036 143.321 63.6036C142.165 63.6036 141.491 63.2902 141.291 62.6635C141.174 62.2563 141.125 61.833 141.143 61.41V47.6338C141.143 46.7981 141.3 46.2246 141.613 45.9133C141.927 45.602 142.521 45.4495 143.396 45.4558H153.149Z" fill="#251F44"/>
<path d="M162.707 63.5535C161.919 63.5703 161.138 63.4101 160.42 63.0847C159.703 62.7592 159.067 62.2769 158.561 61.6732C157.455 60.3929 156.867 58.7454 156.912 57.054V52.7105C156.907 52.4207 156.92 52.1308 156.95 51.8425C156.989 51.6245 157.06 51.4134 157.16 51.2157C157.392 50.7707 158.035 50.5482 159.09 50.5482C160.246 50.5482 160.923 50.8616 161.121 51.4884C161.24 51.895 161.291 52.3186 161.272 52.7419V57.0665C161.246 57.3546 161.284 57.6448 161.382 57.9168C161.48 58.1888 161.637 58.4361 161.841 58.6412C162.045 58.8463 162.291 59.0043 162.562 59.1042C162.834 59.2041 163.124 59.2434 163.412 59.2194C163.702 59.2307 163.992 59.1841 164.264 59.0824C164.536 58.9807 164.786 58.826 164.998 58.6272C165.202 58.4221 165.361 58.177 165.465 57.9072C165.569 57.6375 165.616 57.3491 165.602 57.0603V52.6729C165.598 52.3873 165.61 52.1016 165.64 51.8174C165.68 51.5871 165.759 51.3654 165.875 51.1624C166.084 50.7321 166.719 50.5232 167.78 50.5357C168.842 50.5482 169.478 50.7707 169.689 51.2032C169.79 51.4103 169.861 51.6309 169.899 51.8582C169.929 52.1423 169.941 52.428 169.937 52.7137V61.4883C169.941 61.7656 169.928 62.043 169.899 62.3188C169.862 62.5409 169.782 62.7538 169.664 62.9455C169.415 63.3759 168.779 63.5911 167.755 63.5911C166.732 63.5911 166.113 63.3926 165.9 62.9957C165.727 62.6861 165.641 62.335 165.653 61.9803C165.527 62.1643 165.377 62.3308 165.208 62.4755C164.998 62.6739 164.774 62.8562 164.537 63.0207C163.993 63.3743 163.356 63.5596 162.707 63.5535Z" fill="#251F44"/>
<path d="M179.169 50.5545C179.953 50.5394 180.731 50.7005 181.444 51.0259C182.158 51.3514 182.79 51.8328 183.293 52.4348C184.396 53.7152 184.983 55.3611 184.938 57.0509V61.4068C184.943 61.6925 184.93 61.9782 184.9 62.2624C184.866 62.4816 184.795 62.6934 184.69 62.8891C184.459 63.3383 183.815 63.5618 182.76 63.5598C181.588 63.5598 180.911 63.2537 180.729 62.6416C180.614 62.2342 180.564 61.8111 180.582 61.388V57.0415C180.599 56.7518 180.556 56.4617 180.456 56.1894C180.355 55.9171 180.2 55.6684 179.999 55.4589C179.56 55.0887 179.002 54.8879 178.428 54.8925C177.853 54.8971 177.299 55.1068 176.865 55.484C176.66 55.6882 176.5 55.9331 176.395 56.203C176.291 56.4729 176.244 56.7617 176.257 57.0509V61.4382C176.262 61.7239 176.25 62.0095 176.22 62.2937C176.183 62.5158 176.103 62.7287 175.985 62.9205C175.776 63.3696 175.141 63.5932 174.079 63.5911C173.018 63.589 172.38 63.3571 172.165 62.8954C172.061 62.6891 171.989 62.4683 171.952 62.2404C171.923 61.9572 171.912 61.6726 171.917 61.388V52.6134C171.912 52.3361 171.924 52.0588 171.952 51.7829C171.99 51.5611 172.069 51.3484 172.187 51.1562C172.419 50.7383 173.055 50.5294 174.095 50.5294C175.1 50.5294 175.718 50.7195 175.95 51.0998C176.123 51.4097 176.209 51.7605 176.198 52.1151C176.325 51.9318 176.474 51.7655 176.643 51.62C176.849 51.4253 177.074 51.2511 177.313 51.0998C177.862 50.7334 178.509 50.5432 179.169 50.5545Z" fill="#251F44"/>
<path d="M66.916 31.3255C67.5752 28.7662 67.9069 26.1337 67.9032 23.491C67.9032 22.6636 67.8718 21.8426 67.8091 21.0341C67.2539 13.8687 64.2393 7.11544 59.2758 1.91788C59.116 1.75179 58.9624 1.5857 58.7901 1.42274C58.3106 0.93387 57.8092 0.4638 57.2952 0.0125331C55.9776 0.438874 54.6908 0.955073 53.4438 1.5575C46.2368 5.02787 40.6306 11.1241 37.7748 18.596C37.6839 18.8373 37.593 19.0817 37.5084 19.3261C37.4708 19.4202 37.4395 19.5142 37.4082 19.6082H37.3737C37.1292 19.6082 36.8817 19.6082 36.6372 19.6082C36.3928 19.6082 36.1139 19.6082 35.8569 19.6082C35.8225 19.511 35.7911 19.4139 35.7504 19.3136C35.6658 19.066 35.5717 18.8185 35.4809 18.574C32.6217 11.1065 27.0161 5.0144 19.8119 1.54496L19.5267 1.41021C18.3703 0.864616 17.1801 0.393583 15.9636 0C15.2741 0.607957 14.6098 1.25352 13.9799 1.90535C9.01639 7.10291 6.00178 13.8562 5.44652 21.0215C5.38385 21.8301 5.35251 22.6511 5.35251 23.4784C5.34876 26.1212 5.68046 28.7537 6.33966 31.3129C6.40547 31.5668 6.47441 31.8175 6.54649 32.0682C6.5935 32.2405 6.64364 32.4129 6.69691 32.5821C6.80973 32.9582 6.93195 33.3311 7.06043 33.7009C7.11684 33.8795 7.17952 34.0519 7.24533 34.2274C7.31114 34.4029 7.40202 34.6442 7.48036 34.8541C7.62138 35.2208 7.7718 35.5812 7.92849 35.9384L7.95983 36.0136L8.08205 36.2894L8.20427 36.5558C8.21238 36.5762 8.2218 36.5961 8.23247 36.6153L8.4205 37.0164C8.41993 37.0248 8.41993 37.0332 8.4205 37.0415C7.65217 38.6433 7.02309 40.3083 6.54022 42.018C8.07213 41.7845 9.61926 41.6651 11.1688 41.6607H11.7079C12.3472 41.6607 12.9802 41.6889 13.6069 41.7453L13.8075 41.761L14.3967 41.8143C14.9545 41.8676 15.5092 41.9365 16.0576 42.018C21.5814 42.8633 26.7766 45.1773 31.0998 48.7181C33.1816 50.4235 35.0363 52.3887 36.6184 54.5657C37.3955 53.4934 38.2402 52.4718 39.1474 51.5071C40.0811 50.5154 41.0776 49.5849 42.1308 48.7212C46.4537 45.18 51.6491 42.8659 57.173 42.0211C57.9795 41.8999 58.7943 41.8091 59.6174 41.7485C60.3758 41.69 61.1425 41.6607 61.9176 41.6607H62.0555C62.8661 41.6607 63.6694 41.6942 64.4654 41.761C65.2144 41.8206 65.9508 41.9083 66.6841 42.018C66.6528 41.8989 66.6152 41.7798 66.5807 41.6607C66.1085 40.0761 65.5112 38.5315 64.7944 37.0415C64.7944 37.0415 64.7944 37.0164 64.7944 37.0039C65.6853 35.1849 66.3959 33.283 66.916 31.3255Z" fill="#251F44"/>
<path d="M42.8422 41.6702C43.0657 41.6706 43.2871 41.6267 43.4936 41.5412C43.7001 41.4557 43.8877 41.3302 44.0456 41.1719C45.0041 40.2686 46.0472 39.4595 47.1606 38.7558C48.1696 38.1133 50.075 37.4458 50.7268 37.2421C51.1578 37.1075 51.5176 36.8072 51.7271 36.4072C51.9366 36.0073 51.9787 35.5405 51.844 35.1096C51.7094 34.6786 51.409 34.3188 51.0091 34.1093C50.6092 33.8998 50.1424 33.8577 49.7115 33.9924C49.4294 34.0801 46.9067 34.8824 45.3241 35.8727C43.9994 36.708 42.7617 37.6739 41.6294 38.7558C41.3914 38.9937 41.2293 39.297 41.1636 39.6271C41.0979 39.9572 41.1316 40.2994 41.2604 40.6104C41.3892 40.9213 41.6074 41.1871 41.8872 41.3741C42.1671 41.5611 42.4962 41.6608 42.8328 41.6608L42.8422 41.6702Z" fill="#F9F2ED"/>
<path d="M29.7899 41.6702C29.5663 41.6706 29.345 41.6267 29.1384 41.5412C28.9319 41.4557 28.7443 41.3302 28.5865 41.1719C27.628 40.2686 26.5848 39.4595 25.4715 38.7558C24.4624 38.1133 22.5571 37.4458 21.9052 37.2421C21.4743 37.1075 21.1145 36.8072 20.905 36.4072C20.6955 36.0073 20.6534 35.5405 20.788 35.1096C20.9227 34.6786 21.223 34.3188 21.6229 34.1093C22.0229 33.8998 22.4896 33.8577 22.9206 33.9924C23.2026 34.0801 25.741 34.8824 27.3079 35.8727C28.6326 36.708 29.8704 37.6739 31.0027 38.7558C31.2407 38.9937 31.4028 39.297 31.4685 39.6271C31.5342 39.9572 31.5005 40.2994 31.3716 40.6104C31.2428 40.9213 31.0247 41.1871 30.7448 41.3741C30.4649 41.5611 30.1359 41.6608 29.7993 41.6608L29.7899 41.6702Z" fill="#F9F2ED"/>
<path d="M61.7233 14.3215C60.666 11.3892 59.1572 8.64014 57.2513 6.17364C56.6747 5.42152 56.0574 4.70075 55.4118 4.00818C52.658 5.89307 50.237 8.223 48.2479 10.9025L52.7449 7.68413L49.9527 15.2052L57.2889 14.9953L47.7277 19.135L56.7499 22.9144L52.09 22.8799C53.4854 23.6977 54.8122 24.6273 56.0574 25.6596C58.5294 27.3197 60.7409 29.338 62.6195 31.6483C62.9701 30.2269 63.2141 28.7813 63.3497 27.3237C63.4437 26.3835 63.4876 25.4277 63.4876 24.4594C63.4898 21.0035 62.8928 17.5734 61.7233 14.3215Z" fill="#E53C5A"/>
<path d="M14.1115 25.0516L19.6583 19.768L17.214 24.9419C20.5778 22.3507 24.4562 20.5077 28.5897 19.5361C28.5113 19.2885 28.4298 19.0378 28.3389 18.7934C26.9104 14.7328 24.623 11.028 21.6326 7.93166C20.7917 7.05865 19.8979 6.23814 18.9563 5.47476C18.3296 4.95455 17.659 4.45941 16.9758 3.99561C11.7838 9.54244 8.8995 16.8586 8.90939 24.4562C8.90939 24.8604 8.90939 25.2647 8.93446 25.6658L12.7264 16.5151L14.1115 25.0516Z" fill="#E53C5A"/>
<path d="M12.5853 29.3638C11.6699 30.4428 10.8322 31.5853 10.0783 32.7827C9.56704 31.0031 9.22292 29.1797 9.05041 27.3362C8.99609 26.7888 8.95848 26.2373 8.93759 25.6816L7.6402 28.8153L10.3791 35.9165C10.3791 35.9165 11.4509 33.5913 14.3089 29.6897C17.1669 25.7881 16.9006 25.6157 16.9006 25.6157L17.214 24.9482C15.5176 26.2503 13.9659 27.7307 12.5853 29.3638Z" fill="#251F44"/>
<path d="M10.0752 32.767C11.973 29.7541 14.39 27.1016 17.2139 24.9325L19.6583 19.7586L14.1115 25.0422L12.7263 16.5151L8.93445 25.6721C8.95534 26.2278 8.99295 26.7794 9.04727 27.3267C9.22016 29.1682 9.56428 30.9895 10.0752 32.767Z" fill="#F9F2ED"/>
<path d="M43.798 19.5392C43.8763 19.2916 43.9578 19.0409 44.0487 18.7965C45.0437 15.9662 46.4594 13.3018 48.248 10.8931L42.535 14.9858L42.6604 21.9021L46.9631 22.8422L52.09 22.8799C50.3287 21.8409 48.4646 20.9871 46.5275 20.3321C45.6344 20.0187 44.7256 19.7555 43.798 19.5392Z" fill="#251F44"/>
<path d="M47.7277 19.1224L57.2921 14.9827L49.9559 15.1926L52.7481 7.67151L48.2511 10.8899C46.4625 13.2986 45.0468 15.963 44.0518 18.7934C43.9609 19.0378 43.8794 19.2885 43.8011 19.5361C44.7412 19.7523 45.6375 20.0155 46.5306 20.3164C48.4678 20.9714 50.3319 21.8252 52.0931 22.8642L56.7531 22.8986L47.7277 19.1224Z" fill="#F9F2ED"/>
<path d="M68.6302 52.278C70.3545 49.2379 71.5518 45.9278 72.1714 42.488C70.398 41.8707 68.5717 41.4175 66.7154 41.1342C65.9821 41.0245 65.2457 40.9368 64.4967 40.8773C63.7007 40.8115 62.8985 40.7801 62.0868 40.777H61.9489C61.1738 40.777 60.4071 40.8062 59.6487 40.8647C58.8256 40.9232 58.0108 41.0141 57.2044 41.1374C51.6804 41.9822 46.4851 44.2963 42.1621 47.8374L42.0054 47.9722C46.1432 56.5525 48.2859 65.9579 48.273 75.4838C48.273 76.7708 48.2344 78.0514 48.1571 79.3258C59.0032 76.2485 68.6333 69.1159 71.8079 60.0843C71.8486 59.9715 71.8893 59.8587 71.9238 59.749C72.5626 57.86 73.0149 55.913 73.2745 53.9358C71.7737 53.2587 70.2205 52.7043 68.6302 52.278Z" fill="#F9F2ED"/>
<path d="M31.2816 47.9659L31.1249 47.8312C26.8017 44.2904 21.6065 41.9764 16.0827 41.1311C15.3399 41.0183 14.591 40.9305 13.8326 40.8741C13.0899 40.9337 9.23218 40.8114 8.50513 40.9211C8.17892 40.9757 7.84873 41.0029 7.51798 41.0026C7.20461 41.0402 6.89122 41.0841 6.57785 41.1311C6.13598 41.2 5.70352 41.2752 5.26792 41.3599C3.86128 41.6373 2.47586 42.0133 1.1219 42.4849C1.73563 45.9235 2.92656 49.2335 4.64429 52.2749C3.05398 52.7012 1.50081 53.2556 0 53.9327C0.264312 55.9088 0.719803 57.8546 1.36007 59.7427C1.39454 59.8524 1.43528 59.9652 1.47602 60.078C4.57221 68.8934 14.7571 75.8975 25.1143 79.0939C25.0474 77.9052 25.014 76.7008 25.014 75.4807C25.0014 65.9538 27.1441 56.5474 31.2816 47.9659Z" fill="#F9F2ED"/>
<path d="M41.9992 47.9691C41.0053 48.7939 40.0634 49.6793 39.1787 50.6203C38.27 51.5836 37.4252 52.6053 36.6498 53.6789C35.1059 51.5579 33.3025 49.6386 31.2816 47.9659C27.144 56.5475 25.0014 65.9538 25.014 75.4807C25.014 76.6924 25.0484 77.8969 25.1174 79.094C28.8443 80.2826 32.7258 80.9161 36.6372 80.9743C37.5241 80.9743 38.4141 80.946 39.3072 80.8834C42.2995 80.6699 45.2613 80.1447 48.1445 79.3165C48.2239 78.0441 48.2626 76.7635 48.2605 75.4744C48.2744 65.9511 46.1339 56.548 41.9992 47.9691Z" fill="#F9F2ED"/>
<path d="M33.6382 59.7772C31.3098 62.4221 27.7623 64.2522 23.7072 64.669C21.6236 64.8872 19.5178 64.7236 17.4929 64.1864C13.1243 62.0272 10.1817 58.0003 10.1817 53.3968C10.1811 52.1016 10.4147 50.817 10.8711 49.6049C11.6809 49.1475 12.5305 48.7647 13.4095 48.461C15.2018 47.8364 17.0866 47.5185 18.9845 47.5209C26.9883 47.5397 33.5034 52.9894 33.6382 59.7772Z" fill="#251F44"/>
<path d="M31.7705 59.0408C29.8945 61.0814 27.3239 62.3477 24.5627 62.5914C24.1296 62.6356 23.6945 62.6576 23.2591 62.6572C22.1755 62.6605 21.0963 62.5193 20.0501 62.2373C16.8786 60.6704 14.7414 57.7497 14.7414 54.4028C14.7427 53.463 14.9125 52.5311 15.2428 51.6513C15.8309 51.3199 16.4476 51.042 17.0855 50.8209C18.3865 50.3698 19.7542 50.141 21.1312 50.1439C26.9444 50.1502 31.6733 54.1207 31.7705 59.0408Z" fill="#F9B233"/>
<g style="mix-blend-mode:overlay" opacity="0.3">
<path d="M24.5627 62.582C24.1296 62.6262 23.6945 62.6481 23.2591 62.6478C22.1755 62.6511 21.0963 62.5098 20.0501 62.2278C16.8786 60.6609 14.7414 57.7402 14.7414 54.3933C14.7427 53.4536 14.9125 52.5217 15.2428 51.6419C15.8309 51.3105 16.4476 51.0325 17.0855 50.8114C16.7726 51.7102 16.6126 52.6551 16.6123 53.6067C16.6123 57.267 18.9501 60.4698 22.4223 62.1808C23.1236 62.3731 23.8395 62.5073 24.5627 62.582Z" fill="black"/>
</g>
<path d="M29.4985 55.9195C29.5616 56.0263 29.5949 56.1481 29.5949 56.2721C29.5949 56.3961 29.5616 56.5179 29.4985 56.6247C28.9532 57.5335 27.3737 59.865 25.5091 59.865C23.6445 59.865 22.062 57.5335 21.5167 56.6247C21.4535 56.5179 21.4202 56.3961 21.4202 56.2721C21.4202 56.1481 21.4535 56.0263 21.5167 55.9195C22.062 55.0107 23.6414 52.6792 25.5091 52.6792C27.3769 52.6792 28.9532 55.0107 29.4985 55.9195Z" fill="#251F44"/>
<path d="M28.2418 56.0011C28.2418 56.6654 27.7153 57.2546 27.333 57.5836C27.2264 57.676 27.0901 57.7269 26.9491 57.7269C26.808 57.7269 26.6717 57.676 26.5652 57.5836C26.1638 57.2563 25.8638 56.8215 25.7003 56.3301C25.7809 56.3384 25.8623 56.3298 25.9394 56.305C26.0166 56.2802 26.0877 56.2397 26.1484 56.1859C26.5307 55.8506 27.0572 55.2677 27.0572 54.619C27.0571 54.5038 27.0424 54.389 27.0133 54.2775C27.1302 54.2897 27.24 54.3391 27.3267 54.4185C27.7153 54.7475 28.2418 55.3367 28.2418 56.0011Z" fill="#EEECDA"/>
<path d="M40.0562 59.8149C42.7074 62.8202 46.9506 64.7631 51.6983 64.7631C53.1796 64.7654 54.6547 64.5726 56.0856 64.1896C60.4259 62.0493 63.3341 58.0505 63.3341 53.494C63.3349 52.2095 63.1034 50.9355 62.6509 49.7334C60.1888 48.3665 57.4163 47.6563 54.6002 47.6714C46.6372 47.6557 40.1784 53.0803 40.0562 59.8149Z" fill="#251F44"/>
<path d="M41.8174 59.0408C43.7572 61.2345 46.8503 62.6572 50.3288 62.6572C51.4103 62.66 52.4873 62.5187 53.5315 62.2373C56.7061 60.6704 58.8402 57.7528 58.8402 54.4028C58.8402 53.4629 58.6703 52.5308 58.3388 51.6513C56.5387 50.6525 54.5121 50.1334 52.4535 50.144C46.6372 50.1502 41.9145 54.1208 41.8174 59.0408Z" fill="#F9B233"/>
<path d="M48.8559 55.9195C48.7915 56.0259 48.7574 56.1478 48.7574 56.2721C48.7574 56.3964 48.7915 56.5183 48.8559 56.6247C49.3981 57.5335 50.9806 59.865 52.8452 59.865C54.7099 59.865 56.2924 57.5335 56.8346 56.6247C56.899 56.5183 56.9331 56.3964 56.9331 56.2721C56.9331 56.1478 56.899 56.0259 56.8346 55.9195C56.2893 55.0107 54.7099 52.6792 52.8452 52.6792C50.9806 52.6792 49.3981 55.0107 48.8559 55.9195Z" fill="#251F44"/>
<path d="M55.2708 56.0011C55.2708 56.6654 54.7443 57.2546 54.362 57.5836C54.2554 57.676 54.1191 57.7269 53.9781 57.7269C53.8371 57.7269 53.7008 57.676 53.5942 57.5836C53.1937 57.2561 52.8948 56.8213 52.7324 56.3301C52.8125 56.3381 52.8934 56.3294 52.97 56.3046C53.0466 56.2798 53.1172 56.2394 53.1774 56.1859C53.5566 55.8506 54.0862 55.2677 54.0862 54.619C54.0866 54.5035 54.0708 54.3886 54.0392 54.2775C54.1557 54.2909 54.2652 54.3402 54.3526 54.4185C54.7443 54.7475 55.2708 55.3367 55.2708 56.0011Z" fill="#EEECDA"/>
<g style="mix-blend-mode:overlay" opacity="0.3">
<path d="M52.5914 62.4534C51.8451 62.5912 51.0877 62.6604 50.3288 62.6603C46.8503 62.6603 43.7478 61.2375 41.8174 59.0407C41.9145 54.2554 46.3771 50.3789 51.9615 50.1595C47.2357 51.037 43.6789 54.5813 43.5942 58.8433C45.5341 61.037 48.6271 62.4628 52.1057 62.4628C52.278 62.4628 52.4316 62.4566 52.5914 62.4534Z" fill="black"/>
</g>
<path d="M42.2938 68.2228C42.2998 68.3272 42.2998 68.4318 42.2938 68.5362C42.2797 68.7027 42.2545 68.8681 42.2185 69.0313C42.0143 69.031 41.8102 69.0435 41.6075 69.0689C41.3693 69.094 41.1374 69.1316 40.9086 69.1786C39.8993 69.372 38.9601 69.8318 38.1885 70.5105C38.0266 70.6514 37.8767 70.8054 37.7404 70.9711C37.662 71.0652 37.5837 71.1654 37.5147 71.2626C37.4938 71.2893 37.4749 71.3176 37.4583 71.3472C37.277 71.4954 37.05 71.5763 36.8159 71.5763C36.5817 71.5763 36.3548 71.4954 36.1735 71.3472C36.1735 71.319 36.1358 71.2908 36.1202 71.2657C36.0512 71.1686 35.9729 71.0683 35.8914 70.9743C34.8974 69.8667 33.5144 69.1853 32.0306 69.0721C31.8227 69.0462 31.6133 69.0337 31.4038 69.0345C31.333 68.7693 31.292 68.4971 31.2816 68.2228C31.2806 68.0062 31.3006 67.79 31.3411 67.5772C31.6545 65.8317 33.2716 64.4246 35.3743 63.9859C35.8373 63.8906 36.3088 63.8434 36.7814 63.8449C39.5454 63.8449 41.83 65.4619 42.2217 67.5772C42.2665 67.7896 42.2906 68.0058 42.2938 68.2228Z" fill="#E53C5A"/>
<path d="M35.7598 71.9019L35.7911 71.9489C35.7793 71.9342 35.7688 71.9184 35.7598 71.9019Z" fill="#E5657C"/>
<path d="M42.535 68.5175C42.535 68.6337 42.5288 68.7498 42.5162 68.8653C42.5021 69.049 42.4738 69.2313 42.4316 69.4106C42.2074 69.4098 41.9834 69.4234 41.761 69.4513C41.5041 69.4765 41.2488 69.5163 40.9963 69.5704C39.8885 69.7842 38.8576 70.2894 38.0098 71.0339C37.8334 71.1894 37.6689 71.3581 37.5178 71.5384C37.4332 71.6418 37.3486 71.7484 37.2734 71.8518C37.3486 71.7453 35.3931 68.7462 33.4752 68.5519C33.2526 68.5266 33.0287 68.5141 32.8046 68.5143C32.7355 68.2206 32.7008 67.9198 32.7012 67.6181C32.7007 67.3804 32.7227 67.1433 32.767 66.9098C32.9059 66.2794 33.1721 65.6841 33.5493 65.1603C33.9265 64.6365 34.4068 64.1953 34.9607 63.8638C35.4682 63.7612 35.9847 63.7098 36.5025 63.7102C39.5329 63.7102 42.0399 65.4839 42.4567 67.8029C42.5069 68.0379 42.5331 68.2773 42.535 68.5175Z" fill="#E53C5A"/>
<path d="M43.8795 74.5311C42.9613 75.7471 41.7767 76.3863 40.5075 76.3863C40.0639 76.3844 39.6236 76.3103 39.2038 76.167C38.0975 75.7709 37.1495 75.0264 36.5025 74.0454C35.8523 75.026 34.9026 75.7702 33.7949 76.167C33.3762 76.3103 32.9369 76.3843 32.4944 76.3863C31.222 76.3863 30.0375 75.7596 29.1193 74.5311C29.0654 74.4597 29.026 74.3784 29.0036 74.2918C28.9811 74.2052 28.9759 74.115 28.9882 74.0264C29.0006 73.9378 29.0303 73.8525 29.0756 73.7754C29.121 73.6983 29.1811 73.6308 29.2525 73.5769C29.3239 73.523 29.4052 73.4837 29.4918 73.4612C29.5784 73.4387 29.6685 73.4335 29.7572 73.4459C29.8458 73.4582 29.9311 73.4879 30.0082 73.5333C30.0853 73.5786 30.1528 73.6387 30.2067 73.7101C31.3161 75.1736 32.5351 75.1516 33.3624 74.8727C34.7695 74.4027 35.8193 72.9924 35.8193 72.0523C35.8178 72.0273 35.8178 72.0021 35.8193 71.9771L35.7911 71.9552L35.7598 71.9082L35.7285 71.8611C35.6501 71.7546 35.5655 71.648 35.4777 71.5478C34.3882 70.3307 32.8698 69.5828 31.2408 69.4607C31.0184 69.4328 30.7944 69.4192 30.5702 69.4199C30.5011 69.1272 30.4664 68.8275 30.4668 68.5268C30.4664 68.2881 30.4884 68.0499 30.5326 67.8154C30.8867 65.9007 32.6511 64.3682 34.9575 63.8762C34.4037 64.2078 33.9234 64.649 33.5462 65.1727C33.169 65.6965 32.9028 66.2919 32.7639 66.9223C32.7196 67.1557 32.6976 67.3929 32.6981 67.6305C32.6977 67.9323 32.7324 68.233 32.8015 68.5268C33.0256 68.5265 33.2495 68.5391 33.4721 68.5644C35.4025 68.7587 37.3455 71.7577 37.2703 71.8643L37.2076 71.9583L37.1794 71.9802C37.181 72.0053 37.181 72.0304 37.1794 72.0554C37.1794 72.9956 38.2292 74.4089 39.6363 74.8759C40.4636 75.1548 41.6827 75.1892 42.7889 73.7132C42.8428 73.6418 42.9103 73.5817 42.9874 73.5364C43.0645 73.4911 43.1498 73.4614 43.2384 73.449C43.327 73.4366 43.4172 73.4418 43.5038 73.4643C43.5904 73.4868 43.6717 73.5261 43.7431 73.58C43.8145 73.6339 43.8746 73.7014 43.92 73.7785C43.9653 73.8557 43.995 73.941 44.0074 74.0296C44.0197 74.1182 44.0145 74.2084 43.992 74.2949C43.9696 74.3815 43.9302 74.4629 43.8763 74.5343L43.8795 74.5311Z" fill="#301D49"/>
</svg>
