<svg width="144" height="144" viewBox="0 0 144 144" fill="none" xmlns="http://www.w3.org/2000/svg">
<path fill-rule="evenodd" clip-rule="evenodd" d="M16.3395 34.3585C16.3395 31.597 18.5781 29.3585 21.3395 29.3585H59.8206C62.582 29.3585 64.8206 31.597 64.8206 34.3585V55.2264H60.8206V34.3585C60.8206 33.8062 60.3729 33.3585 59.8206 33.3585H21.3395C20.7872 33.3585 20.3395 33.8062 20.3395 34.3585V115.981H16.3395V34.3585Z" fill="white"/>
<path fill-rule="evenodd" clip-rule="evenodd" d="M31.0184 24.5092V27.3583H51.226V24.5092H31.0184ZM30.0184 20.5092C28.3616 20.5092 27.0184 21.8524 27.0184 23.5092V28.3583C27.0184 30.0151 28.3616 31.3583 30.0184 31.3583H52.226C53.8828 31.3583 55.226 30.0151 55.226 28.3583V23.5092C55.226 21.8524 53.8828 20.5092 52.226 20.5092H30.0184Z" fill="white"/>
<path fill-rule="evenodd" clip-rule="evenodd" d="M30.0184 42.2077C28.3616 42.2077 27.0184 43.5508 27.0184 45.2077V46.802C27.0184 48.4589 28.3616 49.802 30.0184 49.802H52.226C53.8828 49.802 55.226 48.4589 55.226 46.802V45.2077C55.226 43.5508 53.8828 42.2077 52.226 42.2077H30.0184Z" fill="white"/>
<path fill-rule="evenodd" clip-rule="evenodd" d="M30.0184 54.1415C28.3616 54.1415 27.0184 55.4847 27.0184 57.1415V58.7359C27.0184 60.3927 28.3616 61.7359 30.0184 61.7359H52.226C53.8828 61.7359 55.226 60.3927 55.226 58.7359V57.1415C55.226 55.4847 53.8828 54.1415 52.226 54.1415H30.0184Z" fill="white"/>
<path fill-rule="evenodd" clip-rule="evenodd" d="M42.0231 73.6083C41.4543 74.3322 40.5847 74.7549 39.6641 74.7549H30.0184C28.3616 74.7549 27.0184 73.4117 27.0184 71.7549V70.1605C27.0184 68.5037 28.3616 67.1605 30.0184 67.1605H47.0892L42.0231 73.6083Z" fill="white"/>
<path fill-rule="evenodd" clip-rule="evenodd" d="M30.0184 79.0944C28.3616 79.0944 27.0184 80.4375 27.0184 82.0944V83.6887C27.0184 85.3456 28.3616 86.6887 30.0184 86.6887H40.292C41.9489 86.6887 43.292 85.3456 43.292 83.6887V82.0944C43.292 80.4375 41.9489 79.0944 40.292 79.0944H30.0184Z" fill="white"/>
<path fill-rule="evenodd" clip-rule="evenodd" d="M89.6041 45.1226V75.0943H122.831V45.1226H89.6041ZM88.6041 41.1226C86.9473 41.1226 85.6041 42.4657 85.6041 44.1226V76.0943C85.6041 77.7511 86.9473 79.0943 88.6041 79.0943H123.831C125.487 79.0943 126.831 77.7511 126.831 76.0943V44.1226C126.831 42.4657 125.487 41.1226 123.831 41.1226H88.6041Z" fill="white"/>
<path fill-rule="evenodd" clip-rule="evenodd" d="M89.6041 83.0944V111.981H122.831V83.0944H89.6041ZM88.6041 79.0944C86.9473 79.0944 85.6041 80.4375 85.6041 82.0944V112.981C85.6041 114.638 86.9473 115.981 88.6041 115.981H123.831C125.487 115.981 126.831 114.638 126.831 112.981V82.0944C126.831 80.4375 125.487 79.0944 123.831 79.0944H88.6041Z" fill="white"/>
<path fill-rule="evenodd" clip-rule="evenodd" d="M18 117.811V125H126.085V117.811H18ZM17 113.811C15.3431 113.811 14 115.154 14 116.811V126C14 127.657 15.3431 129 17 129H127.085C128.742 129 130.085 127.657 130.085 126V116.811C130.085 115.154 128.742 113.811 127.085 113.811H17Z" fill="white"/>
<path fill-rule="evenodd" clip-rule="evenodd" d="M39.7831 14C38.1262 14 36.7831 15.3431 36.7831 17V20.7642C36.7831 22.421 38.1262 23.7642 39.7831 23.7642H41.3774C43.0343 23.7642 44.3774 22.421 44.3774 20.7642V17C44.3774 15.3431 43.0343 14 41.3774 14H39.7831Z" fill="white"/>
<path fill-rule="evenodd" clip-rule="evenodd" d="M72.0381 46.7458L88.982 59.5998L86.5644 62.7866L72.046 51.7727L44.2072 73.0315V114.896H40.2072V71.0531L72.0381 46.7458Z" fill="white"/>
<path d="M100.793 51.4295C100.793 53.5266 99.0928 55.2267 96.9957 55.2267C94.8985 55.2267 93.1985 53.5266 93.1985 51.4295C93.1985 49.3324 94.8985 47.6323 96.9957 47.6323C99.0928 47.6323 100.793 49.3324 100.793 51.4295Z" fill="white"/>
<path d="M118.151 68.788C118.151 70.8851 116.451 72.5851 114.354 72.5851C112.256 72.5851 110.556 70.8851 110.556 68.788C110.556 66.6908 112.256 64.9908 114.354 64.9908C116.451 64.9908 118.151 66.6908 118.151 68.788Z" fill="white"/>
<path d="M109.472 60.1084C109.472 62.2056 107.772 63.9056 105.675 63.9056C103.577 63.9056 101.877 62.2056 101.877 60.1084C101.877 58.0113 103.577 56.3113 105.675 56.3113C107.772 56.3113 109.472 58.0113 109.472 60.1084Z" fill="white"/>
<path d="M100.793 88.3162C100.793 90.4133 99.0928 92.1133 96.9957 92.1133C94.8985 92.1133 93.1985 90.4133 93.1985 88.3162C93.1985 86.219 94.8985 84.519 96.9957 84.519C99.0928 84.519 100.793 86.219 100.793 88.3162Z" fill="white"/>
<path d="M100.793 105.675C100.793 107.772 99.0928 109.472 96.9957 109.472C94.8985 109.472 93.1985 107.772 93.1985 105.675C93.1985 103.577 94.8985 101.877 96.9957 101.877C99.0928 101.877 100.793 103.577 100.793 105.675Z" fill="white"/>
<path d="M100.793 96.9951C100.793 99.0922 99.0928 100.792 96.9957 100.792C94.8985 100.792 93.1985 99.0922 93.1985 96.9951C93.1985 94.898 94.8985 93.1979 96.9957 93.1979C99.0928 93.1979 100.793 94.898 100.793 96.9951Z" fill="white"/>
<path d="M118.151 88.3162C118.151 90.4133 116.451 92.1133 114.354 92.1133C112.256 92.1133 110.556 90.4133 110.556 88.3162C110.556 86.219 112.256 84.519 114.354 84.519C116.451 84.519 118.151 86.219 118.151 88.3162Z" fill="white"/>
<path d="M118.151 105.675C118.151 107.772 116.451 109.472 114.354 109.472C112.256 109.472 110.556 107.772 110.556 105.675C110.556 103.577 112.256 101.877 114.354 101.877C116.451 101.877 118.151 103.577 118.151 105.675Z" fill="white"/>
<path d="M118.151 96.9951C118.151 99.0922 116.451 100.792 114.354 100.792C112.256 100.792 110.556 99.0922 110.556 96.9951C110.556 94.898 112.256 93.1979 114.354 93.1979C116.451 93.1979 118.151 94.898 118.151 96.9951Z" fill="white"/>
</svg>
