<svg width="144" height="144" viewBox="0 0 144 144" fill="none" xmlns="http://www.w3.org/2000/svg">
<path d="M125.128 71.9796H122.345L120.142 69.2269C117.832 66.3283 116.414 62.8212 116.06 59.1318C116.527 59.1103 116.968 58.91 117.291 58.5725C117.615 58.2349 117.796 57.7859 117.797 57.3183V49.9877C117.797 49.747 117.75 49.5087 117.658 49.2863C117.566 49.0638 117.431 48.8618 117.261 48.6916C117.091 48.5214 116.889 48.3864 116.666 48.2943C116.444 48.2023 116.205 48.155 115.965 48.1551H90.3076C90.0668 48.155 89.8285 48.2023 89.6061 48.2943C89.3837 48.3864 89.1816 48.5214 89.0114 48.6916C88.8412 48.8618 88.7062 49.0638 88.6141 49.2863C88.5221 49.5087 88.4748 49.747 88.4749 49.9877V57.3183C88.4764 57.7859 88.6577 58.235 88.9811 58.5725C89.3046 58.9101 89.7455 59.1104 90.2126 59.1319C89.8583 62.8216 88.4395 66.3288 86.1286 69.227L83.9274 71.9796H81.1443C80.9036 71.9794 80.6652 72.0267 80.4428 72.1188C80.2204 72.2108 80.0183 72.3458 79.8481 72.516C79.6779 72.6862 79.5429 72.8883 79.4509 73.1107C79.3588 73.3331 79.3115 73.5715 79.3116 73.8122V117.796C79.3115 118.037 79.3588 118.275 79.4509 118.497C79.5429 118.72 79.6779 118.922 79.8481 119.092C80.0183 119.262 80.2204 119.397 80.4428 119.489C80.6652 119.581 80.9036 119.629 81.1443 119.629H125.128C125.369 119.629 125.607 119.581 125.829 119.489C126.052 119.397 126.254 119.262 126.424 119.092C126.594 118.922 126.729 118.72 126.821 118.497C126.913 118.275 126.961 118.037 126.961 117.796V73.8122C126.961 73.5715 126.913 73.3331 126.821 73.1107C126.729 72.8883 126.594 72.6862 126.424 72.516C126.254 72.3458 126.052 72.2108 125.829 72.1188C125.607 72.0267 125.369 71.9794 125.128 71.9796ZM92.1402 51.8204H114.132V55.4857H92.1402V51.8204ZM88.9903 71.5177C91.8194 67.9751 93.5279 63.6695 93.8977 59.151H112.375C112.744 63.6691 114.452 67.9745 117.28 71.5177L117.651 71.9796H88.6217L88.9903 71.5177ZM114.132 115.963H92.1402V93.9714H114.132V115.963ZM123.295 79.3102H104.969V82.9755H123.295V115.963H117.797V92.1387C117.797 91.898 117.75 91.6597 117.658 91.4372C117.566 91.2148 117.431 91.0127 117.261 90.8425C117.091 90.6723 116.889 90.5374 116.666 90.4453C116.444 90.3533 116.205 90.3059 115.965 90.3061H90.3076C90.0668 90.3059 89.8285 90.3533 89.6061 90.4453C89.3837 90.5374 89.1816 90.6723 89.0114 90.8425C88.8412 91.0127 88.7062 91.2148 88.6141 91.4372C88.5221 91.6597 88.4748 91.898 88.4749 92.1387V115.963H82.9769V86.6408H101.303V82.9755H82.9769V75.6449H123.295V79.3102Z" fill="white"/>
<path d="M104.969 40.8244H101.303V44.4897H104.969V40.8244Z" fill="white"/>
<path d="M86.6423 24.3306C86.6443 26.2742 87.4172 28.1376 88.7916 29.512C90.1659 30.8863 92.0293 31.6593 93.9729 31.6612H97.6382C98.61 31.6625 99.5415 32.049 100.229 32.7361C100.916 33.4233 101.302 34.3548 101.304 35.3265V37.1592H104.969V35.3265C104.967 33.3829 104.194 31.5195 102.82 30.1451C101.445 28.7708 99.5818 27.9978 97.6382 27.9959H93.9729C93.0008 27.9959 92.0686 27.6097 91.3812 26.9224C90.6938 26.235 90.3076 25.3027 90.3076 24.3306C90.3076 23.3585 90.6938 22.4262 91.3812 21.7388C92.0686 21.0515 93.0008 20.6653 93.9729 20.6653H126.961V17H93.9729C92.0293 17.0019 90.1659 17.7749 88.7916 19.1492C87.4172 20.5236 86.6443 22.387 86.6423 24.3306Z" fill="white"/>
<path d="M75.2311 98.3077C75.0591 98.0981 74.8428 97.9292 74.5977 97.8132C74.3526 97.6971 74.0849 97.6368 73.8137 97.6366V93.5131C73.814 93.0858 73.6647 92.6718 73.3917 92.343C73.1188 92.0141 72.7394 91.7911 72.3193 91.7127L66.4831 90.6174V86.6407C66.4832 86.4 66.4359 86.1616 66.3439 85.9392C66.2518 85.7168 66.1168 85.5147 65.9466 85.3445C65.7764 85.1743 65.5743 85.0393 65.3519 84.9473C65.1295 84.8552 64.8911 84.8079 64.6504 84.808H57.3198C57.0181 84.8081 56.7211 84.8826 56.4552 85.025C56.1892 85.1673 55.9624 85.3731 55.7951 85.6241L52.4787 90.5995L47.5767 92.2335C47.3067 92.3226 47.0612 92.4738 46.8602 92.6749C46.6591 92.876 46.5079 93.1214 46.4188 93.3914L45.0037 97.6366H44.4913C44.2201 97.6366 43.9523 97.6968 43.7072 97.8128C43.4622 97.9289 43.2459 98.0978 43.074 98.3076C42.9021 98.5173 42.7789 98.7625 42.7133 99.0256C42.6476 99.2887 42.6412 99.5631 42.6944 99.829L46.2238 117.476C45.4897 118.154 44.9534 119.018 44.6721 119.977C44.3909 120.936 44.3752 121.953 44.6267 122.92C44.8783 123.887 45.3876 124.768 46.1005 125.468C46.8133 126.168 47.7029 126.662 48.6743 126.896C49.6456 127.13 50.6624 127.097 51.6161 126.798C52.5697 126.5 53.4245 125.948 54.0892 125.202C54.754 124.456 55.2037 123.544 55.3904 122.562C55.5771 121.58 55.4938 120.566 55.1495 119.628H63.1555C62.9382 120.215 62.824 120.835 62.8178 121.461C62.8143 122.373 63.0379 123.272 63.4684 124.076C63.8989 124.881 64.5227 125.565 65.2837 126.068C66.0446 126.571 66.9188 126.877 67.8274 126.958C68.736 127.039 69.6505 126.893 70.4885 126.532C71.3265 126.172 72.0615 125.608 72.6275 124.893C73.1935 124.178 73.5726 123.333 73.7306 122.434C73.8886 121.536 73.8205 120.612 73.5326 119.746C73.2446 118.881 72.7458 118.101 72.0812 117.476L75.6105 99.829C75.6635 99.5631 75.657 99.2888 75.5914 99.0258C75.5258 98.7628 75.4028 98.5176 75.2311 98.3077ZM49.6062 95.4209L53.5131 94.1171L56.5001 95.6106L58.1395 92.3319L56.331 91.4277L58.3006 88.4733H62.8178V95.804H66.4831V94.3465L70.1484 95.0344V97.6366H48.8668L49.6062 95.4209ZM49.9892 123.294C49.6268 123.294 49.2724 123.186 48.9711 122.985C48.6697 122.783 48.4348 122.497 48.2961 122.162C48.1574 121.828 48.1211 121.459 48.1918 121.104C48.2625 120.748 48.437 120.421 48.6933 120.165C48.9496 119.909 49.2762 119.734 49.6317 119.664C49.9872 119.593 50.3557 119.629 50.6905 119.768C51.0254 119.907 51.3116 120.142 51.513 120.443C51.7144 120.744 51.8219 121.099 51.8219 121.461C51.8215 121.947 51.6284 122.413 51.2847 122.757C50.9411 123.1 50.4752 123.293 49.9892 123.294ZM68.3157 123.294C67.9533 123.294 67.5989 123.186 67.2976 122.985C66.9962 122.783 66.7613 122.497 66.6226 122.162C66.4839 121.828 66.4476 121.459 66.5183 121.104C66.589 120.748 66.7636 120.421 67.0199 120.165C67.2762 119.909 67.6027 119.734 67.9582 119.664C68.3137 119.593 68.6822 119.629 69.0171 119.768C69.3519 119.907 69.6382 120.142 69.8395 120.443C70.0409 120.744 70.1484 121.099 70.1484 121.461C70.1481 121.947 69.9549 122.413 69.6113 122.757C69.2676 123.1 68.8017 123.293 68.3157 123.294ZM70.8455 104.967H62.8178V108.633H70.1126L68.6468 115.963H49.6581L48.9252 112.298H55.4872V108.633H48.1924L46.7266 101.302H71.5783L70.8455 104.967Z" fill="white"/>
<path d="M40.8261 123.294H18.8343V126.959H40.8261V123.294Z" fill="white"/>
<path d="M40.826 115.963H33.4954V119.628H40.826V115.963Z" fill="white"/>
<path d="M19.2996 115.729L26.1721 119.655C26.4161 119.795 26.6891 119.876 26.9696 119.893C27.2502 119.91 27.531 119.863 27.7902 119.754C28.0494 119.645 28.28 119.478 28.4643 119.266C28.6486 119.053 28.7816 118.802 28.853 118.53L31.602 108.058C31.6854 107.741 31.6823 107.408 31.5929 107.093C31.5035 106.778 31.3311 106.492 31.0937 106.267L22.8468 98.4116C22.6425 98.2148 22.3949 98.0687 22.1238 97.9851C21.8527 97.9015 21.5658 97.8827 21.2862 97.9302C21.0063 97.9763 20.741 98.0866 20.5109 98.2524C20.2808 98.4182 20.0923 98.635 19.96 98.8859L17.211 104.123C17.0304 104.468 16.964 104.861 17.0213 105.246L18.3958 114.41C18.4371 114.684 18.5399 114.944 18.6964 115.173C18.853 115.401 19.0592 115.591 19.2996 115.729ZM22.0772 102.739L27.7828 108.174L25.9161 115.287L21.8893 112.987L20.735 105.295L22.0772 102.739Z" fill="white"/>
<path d="M42.1057 105.898L40.7349 106.331L32.9857 81.8724L36.4881 80.7631L40.9138 94.5314L44.4038 93.4111L39.9823 79.6565L48.7097 76.8923C48.9391 76.8197 49.1519 76.7026 49.3361 76.5477C49.5202 76.3929 49.6721 76.2032 49.7829 75.9897C49.8938 75.7761 49.9615 75.5428 49.9821 75.3031C50.0028 75.0634 49.9761 74.8219 49.9034 74.5925C49.0927 72.0297 46.5638 70.2883 42.784 69.6906C40.8032 69.4103 38.7932 69.4048 36.8109 69.6741L35.5465 65.6835C35.4745 65.4536 35.3578 65.2403 35.2031 65.0558C35.0484 64.8712 34.8587 64.7191 34.645 64.6081C34.4312 64.4972 34.1976 64.4296 33.9576 64.4093C33.7177 64.389 33.4761 64.4163 33.2467 64.4898L26.2579 66.7018C26.0284 66.7742 25.8154 66.8911 25.6311 67.0459C25.4468 67.2007 25.2949 67.3904 25.184 67.604C25.0731 67.8176 25.0055 68.051 24.9849 68.2908C24.9643 68.5306 24.9913 68.7721 25.0642 69.0014L26.3249 72.9817C24.5504 73.9082 22.9116 75.0741 21.4544 76.4466C18.709 79.1114 17.6441 81.9893 18.4566 84.5521C18.5739 84.9235 18.8064 85.2477 19.1205 85.4779C19.4347 85.708 19.814 85.8319 20.2034 85.8318C20.391 85.832 20.5776 85.803 20.7564 85.7459L29.4922 82.9791L37.7943 109.186C37.8667 109.415 37.9837 109.628 38.1385 109.812C38.2934 109.997 38.483 110.148 38.6966 110.259C38.9102 110.37 39.1436 110.438 39.3834 110.458C39.6232 110.479 39.8647 110.452 40.0941 110.379L43.2117 109.391L42.1057 105.898ZM32.606 68.5361L33.1875 70.3709C32.5961 70.5207 32.006 70.6502 31.414 70.8377C30.8249 71.0242 30.2498 71.2312 29.6828 71.4481L29.1107 69.6422L32.606 68.5361ZM22.2257 81.4363C22.676 80.5509 23.2795 79.7523 24.0083 79.0775C26.4526 76.8756 29.3621 75.2532 32.5201 74.3312C34.858 73.5669 37.2982 73.1615 39.7576 73.1286C40.579 73.1249 41.3994 73.1853 42.2113 73.3093C43.1961 73.4429 44.1496 73.7489 45.0283 74.2131L22.2257 81.4363Z" fill="white"/>
<path d="M22.4387 40.8244H40.8869C41.61 40.8201 42.325 40.6724 42.9906 40.39C43.6563 40.1076 44.2593 39.696 44.7649 39.1791C45.2705 38.6622 45.6686 38.0502 45.9363 37.3785C46.2039 36.7067 46.3357 35.9886 46.324 35.2656C46.3245 34.7959 46.5113 34.3455 46.8435 34.0133C47.1757 33.6811 47.6261 33.4943 48.0959 33.4938H59.2134C60.6612 33.478 62.0442 32.8917 63.0623 31.8624C64.0805 30.8331 64.6515 29.4437 64.6515 27.9959C64.6515 26.5481 64.0805 25.1587 63.0623 24.1294C62.0442 23.1 60.6612 22.5138 59.2134 22.4979H40.7652C40.04 22.5032 39.323 22.6524 38.6559 22.9369C37.9888 23.2214 37.3848 23.6356 36.879 24.1554C36.3732 24.6751 35.9756 25.2902 35.7094 25.9648C35.4432 26.6395 35.3136 27.3603 35.3281 28.0854C35.327 28.5524 35.1419 29.0003 34.8129 29.3319C34.484 29.6635 34.0377 29.8522 33.5706 29.8572L22.3957 29.9484C20.9571 29.9596 19.5816 30.5405 18.5703 31.5637C17.559 32.5869 16.9944 33.9692 17 35.4079C17.0057 36.8465 17.5813 38.2243 18.6006 39.2395C19.62 40.2547 21.0001 40.8246 22.4387 40.8244ZM22.4244 33.6137L33.5993 33.5225C34.3205 33.5103 35.0323 33.3561 35.6939 33.0686C36.3554 32.7811 36.9538 32.3661 37.4548 31.8471C37.9558 31.3282 38.3496 30.7155 38.6136 30.0442C38.8776 29.373 39.0067 28.6562 38.9934 27.935C38.9939 27.4653 39.1807 27.0149 39.5129 26.6827C39.8451 26.3505 40.2955 26.1637 40.7652 26.1632H59.2134C59.4554 26.1672 59.694 26.2198 59.9152 26.3179C60.1363 26.416 60.3355 26.5576 60.5008 26.7343C60.6661 26.911 60.7942 27.1191 60.8774 27.3463C60.9607 27.5735 60.9973 27.8151 60.9853 28.0567C60.9848 28.5265 60.798 28.9769 60.4658 29.3091C60.1336 29.6413 59.6832 29.8281 59.2134 29.8285H48.0959C47.3728 29.8329 46.6578 29.9806 45.9921 30.263C45.3265 30.5454 44.7235 30.957 44.2179 31.4739C43.7123 31.9908 43.3141 32.6028 43.0465 33.2745C42.7789 33.9462 42.6471 34.6644 42.6587 35.3873C42.6583 35.8571 42.4715 36.3075 42.1393 36.6397C41.8071 36.9719 41.3567 37.1587 40.8869 37.1591H22.4387C21.9698 37.1592 21.5198 36.9735 21.1875 36.6426C20.8552 36.3116 20.6676 35.8625 20.6657 35.3936C20.6638 34.9246 20.8478 34.474 21.1774 34.1404C21.5071 33.8068 21.9555 33.6174 22.4244 33.6137Z" fill="white"/>
</svg>
