<svg width="144" height="144" viewBox="0 0 144 144" fill="none" xmlns="http://www.w3.org/2000/svg">
<path d="M118.094 83.1221C118.092 82.9396 118.063 82.7583 118.008 82.584L107.246 50.305C106.99 49.5728 106.514 48.9379 105.882 48.488C105.25 48.0381 104.495 47.7953 103.719 47.7931H99.4734V34.7586C99.4734 34.7177 99.453 34.6841 99.4511 34.6432C99.4401 34.4755 99.4063 34.3101 99.3505 34.1516C99.3331 34.0922 99.3126 34.0338 99.2891 33.9766C99.2014 33.7814 99.0811 33.6026 98.9334 33.4477L84.0369 18.5512C83.8826 18.4029 83.7036 18.2825 83.5081 18.1955C83.4527 18.172 83.3962 18.1515 83.3386 18.1341C83.1753 18.0768 83.0049 18.0424 82.8321 18.0317C82.7819 18.0186 82.7521 18 82.7148 18H47.3355C46.3478 18 45.4006 18.3924 44.7022 19.0908C44.0037 19.7892 43.6114 20.7364 43.6114 21.7241V47.7931H39.3659C38.5856 47.7962 37.8256 48.0423 37.1916 48.4971C36.5576 48.9519 36.0809 49.593 35.8279 50.3311L25.0857 82.584C25.0314 82.7583 25.0025 82.9396 25 83.1221C25 83.1408 25 83.1538 25 83.1724V122.276C25 123.264 25.3924 124.211 26.0908 124.909C26.7892 125.608 27.7364 126 28.7241 126H114.37C115.358 126 116.305 125.608 117.003 124.909C117.702 124.211 118.094 123.264 118.094 122.276V83.1724C118.094 83.1538 118.094 83.1408 118.094 83.1221ZM84.5769 103.655H28.7148V85.0345H38.0252L57.3609 85.0233L60.046 90.4233C60.3547 91.0445 60.8313 91.5667 61.4218 91.9307C62.0122 92.2947 62.6929 92.486 63.3866 92.4828H79.6983C80.3923 92.4876 81.0739 92.2984 81.6661 91.9365C82.2584 91.5745 82.7377 91.0543 83.05 90.4345L85.7314 85.0345H114.37V103.655H84.5769ZM81.5641 107.379L79.702 111.103H63.3828L61.5208 107.379H81.5641ZM99.4734 62.6897V70.1379H43.6114V62.6897H99.4734ZM103.198 73.8621V81.3103H85.7314C85.0373 81.3055 84.3557 81.4947 83.7635 81.8567C83.1713 82.2186 82.692 82.7388 82.3797 83.3586L79.6983 88.7586L63.3791 88.7698L60.694 83.3698C60.3853 82.7486 59.9087 82.2264 59.3182 81.8624C58.7278 81.4984 58.0471 81.3071 57.3535 81.3103H39.8872V73.8621H103.198ZM103.721 51.5172L113.649 81.3103H106.922V73.8621C106.922 72.8744 106.529 71.9271 105.831 71.2287C105.133 70.5303 104.185 70.1379 103.198 70.1379V62.6897C103.198 61.702 102.805 60.7547 102.107 60.0563C101.408 59.3579 100.461 58.9655 99.4734 58.9655V51.5172H103.721ZM93.1163 32.8966H84.5769V24.3571L93.1163 32.8966ZM47.3355 21.7241H80.8528V32.8966C80.8528 33.8843 81.2451 34.8315 81.9435 35.5299C82.6419 36.2283 83.5892 36.6207 84.5769 36.6207H95.7493V58.9655H47.3355V21.7241ZM39.3659 51.5172H43.6114V58.9655C42.6237 58.9655 41.6764 59.3579 40.978 60.0563C40.2796 60.7547 39.8872 61.702 39.8872 62.6897V70.1379C38.8995 70.1379 37.9523 70.5303 37.2539 71.2287C36.5555 71.9271 36.1631 72.8744 36.1631 73.8621V81.3103H29.4354L39.3659 51.5172ZM28.7148 122.276V107.379H57.3572L60.0516 112.779C60.3606 113.397 60.8363 113.917 61.425 114.279C62.0137 114.641 62.6918 114.831 63.3828 114.828H79.702C80.393 114.831 81.0712 114.641 81.6598 114.279C82.2485 113.917 82.7242 113.397 83.0332 112.779L85.7277 107.379H114.37V122.276H28.7148Z" fill="white"/>
<path d="M58.5082 44.069H69.6806C70.6683 44.069 71.6156 43.6766 72.314 42.9782C73.0124 42.2798 73.4047 41.3325 73.4047 40.3448V32.8966C73.4047 31.9089 73.0124 30.9616 72.314 30.2632C71.6156 29.5648 70.6683 29.1724 69.6806 29.1724H58.5082C57.5205 29.1724 56.5732 29.5648 55.8748 30.2632C55.1764 30.9616 54.7841 31.9089 54.7841 32.8966V40.3448C54.7841 41.3325 55.1764 42.2798 55.8748 42.9782C56.5732 43.6766 57.5205 44.069 58.5082 44.069ZM58.5082 32.8966H69.6806V40.3448H58.5082V32.8966Z" fill="white"/>
<path d="M56.6461 51.5172H60.3703C60.8641 51.5172 61.3377 51.321 61.6869 50.9718C62.0362 50.6226 62.2323 50.149 62.2323 49.6551C62.2323 49.1612 62.0362 48.6876 61.6869 48.3384C61.3377 47.9892 60.8641 47.793 60.3703 47.793H56.6461C56.1523 47.793 55.6786 47.9892 55.3294 48.3384C54.9802 48.6876 54.7841 49.1612 54.7841 49.6551C54.7841 50.149 54.9802 50.6226 55.3294 50.9718C55.6786 51.321 56.1523 51.5172 56.6461 51.5172Z" fill="white"/>
<path d="M67.8182 47.793C67.3244 47.793 66.8508 47.9892 66.5016 48.3384C66.1524 48.6876 65.9562 49.1612 65.9562 49.6551C65.9562 50.149 66.1524 50.6226 66.5016 50.9718C66.8508 51.321 67.3244 51.5172 67.8182 51.5172H73.4045C73.8983 51.5172 74.3719 51.321 74.7211 50.9718C75.0703 50.6226 75.2665 50.149 75.2665 49.6551C75.2665 49.1612 75.0703 48.6876 74.7211 48.3384C74.3719 47.9892 73.8983 47.793 73.4045 47.793H67.8182Z" fill="white"/>
<path d="M80.8528 51.5172H86.439C86.9329 51.5172 87.4065 51.321 87.7557 50.9718C88.1049 50.6226 88.3011 50.149 88.3011 49.6551C88.3011 49.1612 88.1049 48.6876 87.7557 48.3384C87.4065 47.9892 86.9329 47.793 86.439 47.793H80.8528C80.3589 47.793 79.8853 47.9892 79.5361 48.3384C79.1869 48.6876 78.9907 49.1612 78.9907 49.6551C78.9907 50.149 79.1869 50.6226 79.5361 50.9718C79.8853 51.321 80.3589 51.5172 80.8528 51.5172Z" fill="white"/>
</svg>
