<svg width="144" height="144" viewBox="0 0 144 144" fill="none" xmlns="http://www.w3.org/2000/svg">
<path d="M102.936 38.3542C102.936 38.3179 102.936 33.4181 102.936 33.3804H107.902C112.694 33.3804 116.592 29.482 116.592 24.6902C116.592 19.8984 112.694 16 107.902 16C96.0158 16 45.3832 16 38.3804 16C33.5886 16 29.6902 19.8984 29.6902 24.6902C29.6902 29.482 33.5886 33.3804 38.3804 33.3804H43.3462V38.3462C43.3557 38.6765 43.3979 38.9454 43.522 39.26C43.703 39.7158 44.0089 40.0979 44.3858 40.3666L60.7266 52.0385V58.2096C60.7266 58.9909 61.0946 59.7269 61.7198 60.1959L70.6583 66.8998V81.6053C52.0816 92.3338 53.4435 91.536 53.22 91.7038C52.606 92.1855 52.2658 92.9227 52.2658 93.6591V114.899C52.2658 115.786 52.7391 116.605 53.5073 117.049C73.1802 128.407 71.9722 127.724 72.2071 127.819C72.8914 128.098 73.6949 128.057 74.363 127.679C74.4797 127.614 89.4594 118.964 92.7778 117.049C93.5463 116.605 94.0195 115.786 94.0195 114.898C94.0118 92.4383 94.0389 93.6445 93.9979 93.3334C93.9771 93.1673 93.923 92.9508 93.846 92.7539C93.662 92.2915 93.4249 92.003 93.0502 91.6907C92.7806 91.4834 93.6459 92.0194 75.6241 81.6051V66.8995L84.5626 60.1956C85.1881 59.7266 85.5558 58.9907 85.5558 58.2093V52.0383C102.796 39.7059 101.928 40.382 102.207 40.1036C102.669 39.6418 102.934 39.0057 102.936 38.3542ZM111.626 24.6902C111.626 26.7438 109.956 28.4146 107.902 28.4146H102.936V20.9658H107.902C109.956 20.9658 111.626 22.6366 111.626 24.6902ZM97.9704 35.8633H48.3121C48.3121 34.5563 48.3121 24.7227 48.3121 20.9658H97.9704C97.9704 23.2253 97.9704 31.9475 97.9704 35.8633ZM38.3804 28.4146C36.3268 28.4146 34.656 26.7438 34.656 24.6902C34.656 22.6366 36.3268 20.9658 38.3804 20.9658H43.3462V28.4146H38.3804ZM73.1412 101.412L59.7141 93.6589L73.1412 85.9057L86.5705 93.6591L73.1412 101.412ZM57.2317 97.9598L70.6583 105.712V121.218L57.2317 113.465V97.9598ZM75.6241 121.219V105.712L89.0537 97.9593V113.465L75.6241 121.219ZM80.59 56.9681L73.1412 62.5547L65.6925 56.9681V53.2437H80.59V56.9681ZM82.2771 48.2779H64.0053L53.5771 40.8292H92.7053L82.2771 48.2779Z" fill="white"/>
<path d="M55.7609 28.4146H83.0729C84.444 28.4146 85.5559 27.303 85.5559 25.9316C85.5559 24.5603 84.444 23.4487 83.0729 23.4487H55.7609C54.3896 23.4487 53.278 24.5603 53.278 25.9316C53.278 27.303 54.3896 28.4146 55.7609 28.4146Z" fill="white"/>
<path d="M90.5216 28.4146C91.8929 28.4146 93.0045 27.3029 93.0045 25.9316C93.0045 24.5604 91.8929 23.4487 90.5216 23.4487C89.1503 23.4487 88.0387 24.5604 88.0387 25.9316C88.0387 27.3029 89.1503 28.4146 90.5216 28.4146Z" fill="white"/>
<path d="M120.317 45.795C121.688 45.795 122.8 44.6834 122.8 43.3121C122.8 41.9408 121.688 40.8292 120.317 40.8292C118.945 40.8292 117.834 41.9408 117.834 43.3121C117.834 44.6834 118.945 45.795 120.317 45.795Z" fill="white"/>
<path d="M93.0045 73.1071C94.3758 73.1071 95.4874 71.9954 95.4874 70.6242C95.4874 69.2529 94.3758 68.1412 93.0045 68.1412C91.6332 68.1412 90.5216 69.2529 90.5216 70.6242C90.5216 71.9954 91.6332 73.1071 93.0045 73.1071Z" fill="white"/>
<path d="M117.834 100.419C119.205 100.419 120.317 99.3075 120.317 97.9362C120.317 96.5649 119.205 95.4533 117.834 95.4533C116.462 95.4533 115.351 96.5649 115.351 97.9362C115.351 99.3075 116.462 100.419 117.834 100.419Z" fill="white"/>
<path d="M38.3804 107.868C39.7517 107.868 40.8633 106.756 40.8633 105.385C40.8633 104.014 39.7517 102.902 38.3804 102.902C37.0091 102.902 35.8975 104.014 35.8975 105.385C35.8975 106.756 37.0091 107.868 38.3804 107.868Z" fill="white"/>
<path d="M48.312 63.1754C49.6833 63.1754 50.7949 62.0638 50.7949 60.6925C50.7949 59.3212 49.6833 58.2096 48.312 58.2096C46.9407 58.2096 45.8291 59.3212 45.8291 60.6925C45.8291 62.0638 46.9407 63.1754 48.312 63.1754Z" fill="white"/>
<path d="M23.4829 43.3121C24.8542 43.3121 25.9658 42.2004 25.9658 40.8292C25.9658 39.4579 24.8542 38.3463 23.4829 38.3463C22.1116 38.3463 21 39.4579 21 40.8292C21 42.2004 22.1116 43.3121 23.4829 43.3121Z" fill="white"/>
<path d="M33.4146 70.6239C29.3073 70.6239 25.9658 73.9654 25.9658 78.0727C25.9658 82.1799 29.3073 85.5214 33.4146 85.5214C37.5218 85.5214 40.8633 82.1799 40.8633 78.0727C40.8633 73.9654 37.5218 70.6239 33.4146 70.6239ZM33.4146 80.5558C32.0455 80.5558 30.9317 79.442 30.9317 78.0729C30.9317 76.7038 32.0455 75.59 33.4146 75.59C34.7836 75.59 35.8975 76.7038 35.8975 78.0729C35.8975 79.442 34.7836 80.5558 33.4146 80.5558Z" fill="white"/>
<path d="M112.868 53.2437C107.392 53.2437 102.936 57.6991 102.936 63.1754C102.936 68.6517 107.392 73.107 112.868 73.107C118.344 73.107 122.799 68.6517 122.799 63.1754C122.799 57.6991 118.344 53.2437 112.868 53.2437ZM112.868 68.1412C110.13 68.1412 107.902 65.9135 107.902 63.1754C107.902 60.4372 110.13 58.2095 112.868 58.2095C115.606 58.2095 117.834 60.4372 117.834 63.1754C117.834 65.9135 115.606 68.1412 112.868 68.1412Z" fill="white"/>
</svg>
