<svg width="144" height="144" viewBox="0 0 144 144" fill="none" xmlns="http://www.w3.org/2000/svg">
<path d="M52.7588 60.5955C38.4278 60.5955 26.767 72.2552 26.767 86.5873C26.767 100.916 38.4278 112.572 52.7588 112.572C67.0872 112.572 78.742 100.916 78.742 86.5873C78.742 72.2552 67.086 60.5955 52.7588 60.5955ZM52.7588 107.773C41.0734 107.773 31.566 98.269 31.566 86.5873C31.566 74.9007 41.0734 65.3933 52.7588 65.3933C64.4404 65.3933 73.9442 74.9007 73.9442 86.5873C73.9442 98.2702 64.4404 107.773 52.7588 107.773Z" fill="white"/>
<path d="M119.698 39.9059H114.831C114.978 39.3648 115.082 38.8065 115.082 38.2201V27.4848C115.082 23.9088 112.173 21 108.599 21H50.0153C46.4393 21 43.5317 23.9088 43.5317 27.4848V38.2201C43.5317 41.7949 46.4393 44.7049 50.0153 44.7049H54.884C54.7359 45.2485 54.6306 45.8092 54.6306 46.3993V50.8788C54.0099 50.8469 53.3856 50.8286 52.7575 50.8286C33.0412 50.8286 17 66.8698 17 86.5873C17 106.305 33.0412 122.346 52.7575 122.346C67.1754 122.346 79.6185 113.764 85.2709 101.445H109.667C112.733 101.445 115.227 98.9472 115.227 95.8781V83.2929C115.227 81.9781 114.749 80.7857 113.984 79.8332C114.758 78.7657 115.227 77.4643 115.227 76.0479V65.3052C115.227 64.7188 115.124 64.1593 114.976 63.6194H119.696C123.272 63.6194 126.18 60.7106 126.18 57.1358V46.4005C126.182 42.8184 123.274 39.9059 119.698 39.9059ZM48.3307 38.2201V27.4848C48.3307 26.5556 49.0861 25.799 50.0153 25.799H108.599C109.512 25.799 110.283 26.5703 110.283 27.4848V38.2201C110.283 39.1346 109.512 39.9059 108.599 39.9059H61.124H50.0153C49.0861 39.9059 48.3307 39.1506 48.3307 38.2201ZM52.7588 117.548C35.688 117.548 21.799 103.659 21.799 86.5873C21.799 69.5153 35.688 55.6264 52.7588 55.6264C54.2046 55.6264 55.6235 55.7341 57.0179 55.9263C57.5615 56.001 58.1026 56.0903 58.64 56.1932C58.8175 56.2275 58.995 56.2605 59.1713 56.2972C59.7063 56.4099 60.234 56.5396 60.7604 56.6792C61.0371 56.7539 61.3125 56.8322 61.5855 56.9142C61.9222 57.0146 62.2564 57.1224 62.5894 57.235C63.0852 57.4015 63.5761 57.5802 64.0609 57.7712C64.3364 57.879 64.6131 57.9855 64.8861 58.1018C65.2411 58.2536 65.5912 58.4139 65.9389 58.578C66.1274 58.6674 66.3148 58.7592 66.5008 58.8534C67.2795 59.2403 68.0446 59.6553 68.7853 60.1046C68.7914 60.1083 68.7975 60.112 68.8036 60.1156C69.1746 60.3409 69.5382 60.5772 69.8993 60.8183C70.0291 60.9053 70.1576 60.9946 70.2862 61.0828C71.0097 61.5823 71.7149 62.1075 72.3919 62.6645C72.4115 62.6804 72.4298 62.6939 72.4494 62.7098C72.7481 62.9559 73.0383 63.213 73.3272 63.47C73.659 63.7663 73.9846 64.0699 74.3029 64.3797C74.6028 64.671 74.8954 64.9685 75.1844 65.2721C75.5235 65.6296 75.8565 65.9932 76.1784 66.3666C76.329 66.5404 76.4833 66.7106 76.6302 66.8881C77.0746 67.428 77.4969 67.985 77.9046 68.5519C78.0075 68.6951 78.1103 68.8371 78.2107 68.9828C78.6343 69.5949 79.0383 70.2205 79.4165 70.862C79.468 70.9501 79.5182 71.0395 79.5696 71.1277C80.3849 72.5392 81.0925 74.0132 81.6765 75.5361C81.6936 75.5827 81.7132 75.6267 81.7304 75.672C82.0107 76.4139 82.2605 77.1693 82.4833 77.9332C82.5126 78.0348 82.542 78.1376 82.5702 78.2393C82.7844 79.0007 82.973 79.7696 83.1272 80.5469C83.1542 80.6841 83.1762 80.8236 83.2019 80.962C83.2692 81.328 83.3353 81.6953 83.3892 82.0638C83.399 82.1336 83.4063 82.2046 83.4161 82.2743C83.4761 82.7065 83.5312 83.1399 83.5741 83.572C83.5839 83.6663 83.5875 83.7618 83.5961 83.8561C83.6316 84.2601 83.6647 84.6641 83.6842 85.0668C83.7087 85.5712 83.7234 86.078 83.7234 86.5886C83.7234 87.1064 83.71 87.6218 83.6842 88.1348C83.6769 88.2902 83.661 88.4445 83.6512 88.6C83.6279 88.9575 83.6047 89.3149 83.5692 89.67C83.552 89.8475 83.5263 90.025 83.5055 90.2025C83.4676 90.5318 83.4284 90.8599 83.3794 91.1856C83.3513 91.3753 83.3158 91.5626 83.2839 91.7512C83.2313 92.0609 83.1799 92.3706 83.1174 92.6767C83.077 92.8762 83.0317 93.0733 82.9876 93.2717C82.924 93.563 82.8591 93.8544 82.7857 94.1421C82.733 94.3514 82.6742 94.5583 82.6179 94.7665C82.542 95.0407 82.4674 95.3149 82.3853 95.5855C82.3204 95.7985 82.2494 96.0115 82.1797 96.2233C82.0927 96.4865 82.0058 96.751 81.9128 97.0105C81.8393 97.2149 81.761 97.4194 81.6826 97.6226C77.2252 109.26 65.9438 117.548 52.7588 117.548ZM110.429 95.8793C110.429 96.2955 110.081 96.6469 109.669 96.6469H87.0766C87.1084 96.5379 87.1292 96.4253 87.1611 96.3164C87.3276 95.7275 87.4806 95.1325 87.6177 94.5314C87.6557 94.3612 87.6985 94.1923 87.7353 94.0209C87.8883 93.2974 88.0205 92.5665 88.1307 91.8271C88.1564 91.6544 88.1735 91.4818 88.1968 91.3092C88.2751 90.7167 88.3388 90.1205 88.3878 89.5194C88.4061 89.3027 88.4233 89.086 88.438 88.8693C88.4857 88.114 88.5188 87.3537 88.5188 86.5861C88.5188 85.9275 88.4979 85.275 88.4624 84.6249C88.4551 84.4951 88.4416 84.3653 88.4331 84.2356C88.3988 83.7006 88.3547 83.168 88.2972 82.6392C88.2935 82.6037 88.2923 82.5669 88.2874 82.5314H108.744H109.67C110.081 82.5314 110.43 82.8791 110.43 83.2917V95.8793H110.429ZM110.429 65.304V76.0466C110.429 76.9611 109.658 77.7324 108.744 77.7324H87.4072C87.2419 77.0848 87.057 76.4458 86.8562 75.8128C86.8526 75.8006 86.8477 75.7883 86.844 75.7761C86.653 75.1774 86.4461 74.5873 86.2258 74.0034C86.1866 73.9006 86.145 73.7989 86.1046 73.6973C85.9136 73.2052 85.7128 72.7167 85.501 72.2344C85.441 72.0985 85.3786 71.9638 85.3174 71.8291C85.1154 71.3872 84.9073 70.9489 84.6881 70.5168C84.6098 70.3601 84.529 70.2046 84.4482 70.0491C84.2388 69.6488 84.0197 69.2546 83.7957 68.8628C83.6953 68.6865 83.5961 68.5102 83.4933 68.3376C83.2839 67.9863 83.066 67.6423 82.8456 67.2982C82.7159 67.095 82.5898 66.8906 82.4551 66.6898C82.2874 66.44 82.1111 66.1989 81.9373 65.954C81.3729 65.1546 80.7865 64.3699 80.1572 63.6182H108.743C109.658 63.6182 110.429 64.3895 110.429 65.304ZM121.385 57.1346C121.385 58.0638 120.628 58.8204 119.699 58.8204H108.744H75.2933C74.4755 58.1556 73.6235 57.5435 72.7567 56.9571C72.7408 56.9461 72.7249 56.9363 72.709 56.9265C70.8714 55.6863 68.931 54.6274 66.9085 53.7545C66.7616 53.6908 66.6159 53.6272 66.469 53.5672C66.0577 53.3958 65.6439 53.2317 65.2252 53.0763C65.0183 52.9991 64.8089 52.9269 64.5996 52.8535C64.2103 52.7163 63.821 52.5792 63.4268 52.4556C63.0766 52.3466 62.7204 52.2499 62.3666 52.1507C61.8904 52.0185 61.4129 51.8949 60.9306 51.7822C60.5253 51.6868 60.1201 51.5937 59.7112 51.5129C59.617 51.4946 59.5239 51.4688 59.4296 51.4505V46.3993C59.4296 45.4811 60.207 44.7049 61.124 44.7049H108.599H119.698C120.627 44.7049 121.383 45.4652 121.383 46.3993V57.1346H121.385Z" fill="white"/>
<path d="M56.8956 84.5245C56.2663 84.227 55.5783 83.9724 54.8229 83.752C54.0676 83.5304 53.371 83.37 52.7417 83.277C52.1137 83.1827 51.5873 82.9966 51.1551 82.7163C50.7291 82.4274 50.5099 82.0613 50.5099 81.5949C50.5099 81.1358 50.6874 80.771 51.0437 80.5078C51.4012 80.2531 51.8517 80.1172 52.4026 80.1172C52.9462 80.1172 53.3967 80.236 53.7542 80.4649C53.8815 80.5494 54.0161 80.6522 54.1618 80.7796C54.3063 80.9069 54.5107 81.0599 54.774 81.246C55.0359 81.4419 55.3604 81.5349 55.7338 81.5349C56.3202 81.5349 56.8625 81.1701 57.3559 80.4306C57.848 79.6998 58.0941 79.1746 58.0941 78.8599C58.0941 78.5453 57.8309 78.1462 57.3032 77.6614L57.1857 77.5671L56.8968 77.3211C56.7095 77.168 56.3691 76.9807 55.8954 76.7518C55.4106 76.5216 54.8756 76.3441 54.2892 76.2156V74.4576C54.2892 73.9299 54.2634 73.5321 54.2218 73.2591C54.179 72.9873 54.0174 72.7326 53.7382 72.4866C53.4579 72.2491 53.0319 72.1303 52.4626 72.1303C51.5628 72.1303 51.0106 72.3764 50.7988 72.8771C50.6715 73.2003 50.6115 73.7096 50.6115 74.4233V76.1813C49.2024 76.4788 48.1067 77.124 47.3073 78.134C46.5103 79.1366 46.11 80.2739 46.11 81.5312C46.11 82.7885 46.4075 83.8242 46.9927 84.6408C47.5791 85.4635 48.2928 86.0413 49.1327 86.3731C49.9651 86.7122 50.8062 86.9754 51.6472 87.1713C52.4883 87.3757 53.1935 87.5961 53.7884 87.8508C54.3748 88.1054 54.6625 88.4629 54.6625 88.9207C54.6625 90.2037 53.8888 90.8403 52.3353 90.8403C51.5199 90.8403 50.7891 90.4412 50.1353 89.643C49.2943 88.802 48.6405 88.3857 48.1729 88.3857C47.6979 88.3857 47.2559 88.5816 46.8311 88.9807C46.1174 89.6761 45.7611 90.2294 45.7611 90.653C45.7611 91.0693 45.9815 91.5626 46.4234 92.1319L46.8311 92.6669C47.1029 92.9987 47.5864 93.3892 48.283 93.8312C48.9723 94.2645 49.7448 94.5877 50.6103 94.7738V96.7179C50.6103 97.4316 50.6776 97.9666 50.8307 98.3241C50.9323 98.5959 51.111 98.7832 51.3742 98.8934C51.6375 98.995 51.9937 99.0464 52.4271 99.0464C52.8678 99.0464 53.2253 98.995 53.4799 98.8934C53.7431 98.7832 53.9464 98.5873 54.0835 98.2898C54.2194 98.0009 54.2867 97.4831 54.2867 96.7534V94.7408C55.6297 94.4261 56.767 93.7724 57.7097 92.7869C58.6609 91.8014 59.1273 90.4939 59.1273 88.8632C59.1273 87.7504 58.9155 86.8163 58.4822 86.0781C58.0586 85.33 57.5236 84.8122 56.8956 84.5245Z" fill="white"/>
</svg>
